<?xml version="1.0" encoding="utf-8"?>
<!-- Generator: Adobe Illustrator 24.3.0, SVG Export Plug-In . SVG Version: 6.00 Build 0)  -->
<svg version="1.1" id="Layer_1" xmlns="http://www.w3.org/2000/svg" xmlns:xlink="http://www.w3.org/1999/xlink" x="0px" y="0px"
	 viewBox="0 0 1024 279.81" style="enable-background:new 0 0 1024 279.81;" xml:space="preserve">
<style type="text/css">
	.st0{fill:#FFFFFF;}
</style>
<g>
	<g>
		<path class="st0" d="M415.47,0H279.81h-4.24h-4.24H144.15h-8.49H76.32H0v76.32v59.35v8.48v0v131.42v4.24h67.83h67.83h4.24h4.24
			h127.18h8.49h131.42h4.24v-67.83v-67.83h0V0z M279.88,144.15h59.41c2.12,36.37,31.33,65.57,67.7,67.69v59.41
			C337.89,269.06,282.08,213.25,279.88,144.15z M406.92,135.66h-59.41c-2.12-36.37-31.33-65.57-67.7-67.69v-0.14V8.55
			C348.91,10.76,404.72,66.56,406.92,135.66z M279.81,76.46c31.69,2.1,57.11,27.51,59.21,59.2h-59.21V76.46z M271.32,135.66
			L271.32,135.66l-59.21,0c2.1-31.69,27.51-57.11,59.21-59.21V135.66z M271.32,67.83v0.14c-36.37,2.12-65.57,31.33-67.7,67.7h-59.41
			c2.2-69.1,58.01-124.91,127.11-127.11V67.83z M144.15,144.15h59.2c-2.1,31.69-27.51,57.11-59.2,59.2V144.15z M144.15,211.84
			c36.37-2.12,65.57-31.33,67.7-67.69h59.41c-2.2,69.1-58.01,124.91-127.11,127.11V211.84z M406.99,91.91
			c-14.14-38.6-44.82-69.28-83.42-83.42h83.42V91.91z M227.56,8.49c-38.59,14.14-69.28,44.82-83.42,83.42V8.49H227.56z
			 M135.66,135.66H52.24c38.6-14.14,69.28-44.82,83.42-83.42V135.66z M135.59,8.49c-2.2,69.1-58.01,124.91-127.11,127.11V76.18
			c36.37-2.12,65.57-31.33,67.7-67.7H135.59z M8.49,8.49h59.2c-2.1,31.69-27.51,57.11-59.2,59.21V8.49z M8.49,144.15H91.9
			c-38.59,14.14-69.28,44.82-83.42,83.42V144.15z M8.55,271.33c2.2-69.1,58.01-124.91,127.11-127.11v59.41
			c-36.37,2.12-65.57,31.33-67.7,67.7H8.55z M135.66,271.33H76.46c2.1-31.69,27.51-57.11,59.21-59.21V271.33z M187.91,271.33
			c38.59-14.14,69.28-44.82,83.42-83.42v83.42H187.91z M279.81,271.33v-83.42c14.14,38.59,44.82,69.28,83.42,83.42H279.81z
			 M406.99,203.35c-31.69-2.1-57.11-27.51-59.2-59.2h59.2V203.35z"/>
	</g>
	<g>
		<g>
			<g>
				<g>
					<path class="st0" d="M482.06,31.95h66.58v17.21h-46.55v20.45h45.56v17.21h-45.56v21.87h46.55v17.35h-66.58V31.95z"/>
				</g>
			</g>
			<g>
				<g>
					<path class="st0" d="M592.86,103.05l-15.66,22.99h-19.89l24.12-34.99l-22.71-33.15h20.03l14.11,21.02l13.97-21.02h20.03
						L604,91.06l24.41,34.99h-20.03L592.86,103.05z"/>
				</g>
			</g>
			<g>
				<g>
					<path class="st0" d="M638.19,152V57.91h17.92v8.6c5.22-6.63,12.7-10.3,21.02-10.3c17.49,0,30.19,12.98,30.19,35.69
						s-12.7,35.83-30.19,35.83c-8.04,0-15.52-3.38-21.02-10.44V152H638.19z M671.48,72.16c-5.78,0-12.42,3.38-15.38,7.76v24.12
						c2.96,4.23,9.6,7.76,15.38,7.76c10.3,0,17.21-8.04,17.21-19.89C688.69,80.2,681.78,72.16,671.48,72.16z"/>
				</g>
			</g>
			<g>
				<g>
					<path class="st0" d="M718.22,31.95h17.92v94.09h-17.92V31.95z"/>
				</g>
			</g>
			<g>
				<g>
					<path class="st0" d="M746.26,91.91c0-19.33,13.54-35.69,35.97-35.69c22.57,0,36.11,16.36,36.11,35.69
						c0,19.47-13.54,35.83-36.11,35.83C759.8,127.74,746.26,111.38,746.26,91.91z M799.73,91.91c0-10.58-6.35-19.75-17.49-19.75
						c-11.15,0-17.35,9.17-17.35,19.75c0,10.72,6.21,19.89,17.35,19.89C793.38,111.8,799.73,102.63,799.73,91.91z"/>
				</g>
			</g>
			<g>
				<g>
					<path class="st0" d="M830.43,57.91h17.92v9.31c4.8-6.07,13.26-10.87,21.73-10.87v17.49c-1.27-0.28-2.96-0.56-4.94-0.56
						c-5.93,0-13.83,3.38-16.79,7.76v45h-17.92V57.91z"/>
				</g>
			</g>
			<g>
				<g>
					<path class="st0" d="M910.32,56.22c20.32,0,34.14,15.23,34.14,37.52v3.95h-50.64c1.13,8.61,8.04,15.8,19.61,15.8
						c6.35,0,13.82-2.54,18.2-6.77l7.9,11.57c-6.77,6.21-17.49,9.45-28.07,9.45c-20.74,0-36.39-13.97-36.39-35.83
						C875.06,72.16,889.59,56.22,910.32,56.22z M893.54,85.56h33.58c-0.42-6.49-4.94-15.09-16.79-15.09
						C899.18,70.46,894.38,78.79,893.54,85.56z"/>
				</g>
			</g>
		</g>
		<g>
			<g>
				<path class="st0" d="M482.06,152h44.01c20.45,0,31.6,13.82,31.6,30.33c0,16.36-11.28,30.05-31.6,30.05h-23.98v33.71h-20.03V152z
					 M523.39,169.21h-21.3v25.96h21.3c7.9,0,13.82-5.08,13.82-12.98C537.22,174.43,531.29,169.21,523.39,169.21z"/>
			</g>
			<g>
				<path class="st0" d="M608.52,239.04c-4.65,5.5-12.7,8.75-21.58,8.75c-10.86,0-23.7-7.33-23.7-22.57
					c0-15.94,12.84-21.73,23.7-21.73c9.03,0,17.07,2.82,21.58,8.32v-9.45c0-6.92-5.92-11.43-14.95-11.43
					c-7.33,0-14.11,2.68-19.89,8.04l-6.77-11.99c8.32-7.34,19.04-10.72,29.77-10.72c15.52,0,29.77,6.2,29.77,25.82v44.01h-17.92
					V239.04z M608.52,221.27c-2.96-3.95-8.6-5.92-14.39-5.92c-7.05,0-12.84,3.67-12.84,10.3c0,6.35,5.79,10.02,12.84,10.02
					c5.78,0,11.42-1.97,14.39-5.92V221.27z"/>
			</g>
			<g>
				<path class="st0" d="M638.19,177.96h17.92v9.31c4.8-6.07,13.26-10.87,21.73-10.87v17.49c-1.27-0.28-2.96-0.56-4.94-0.56
					c-5.93,0-13.83,3.38-16.79,7.76v45h-17.92V177.96z"/>
			</g>
			<g>
				<path class="st0" d="M712.92,219.86l-8.18,8.75v17.49h-17.92V152h17.92v56.29l25.82-30.33h22.01l-26.95,30.89l27.79,37.24
					h-22.43L712.92,219.86z"/>
			</g>
			<g>
				<path class="st0" d="M763.87,224.65c4.94,4.66,15.1,9.31,23.56,9.31c7.76,0,11.42-2.68,11.42-6.91c0-4.8-5.92-6.49-13.68-8.04
					c-11.71-2.26-26.8-5.08-26.8-21.3c0-11.42,10.02-21.44,27.93-21.44c11.57,0,20.74,3.95,27.51,9.31l-7.2,12.27
					c-4.09-4.37-11.85-7.9-20.17-7.9c-6.49,0-10.72,2.4-10.72,6.35c0,4.23,5.36,5.78,12.98,7.33c11.71,2.26,27.37,5.36,27.37,22.29
					c0,12.42-10.58,21.87-29.48,21.87c-11.85,0-23.28-3.95-30.48-10.58L763.87,224.65z"/>
			</g>
			<g>
				<path class="st0" d="M888.98,165.26l-22.57,80.83h-9.03L830.43,152h9.03l22.72,82.81L885.31,152h7.33l22.99,82.81L938.35,152
					h9.03l-26.81,94.09h-9.03L888.98,165.26z"/>
			</g>
			<g>
				<path class="st0" d="M1005.52,222.96h-50.08l-9.45,23.14h-9.03L975.47,152h10.02L1024,246.1h-9.03L1005.52,222.96z
					 M957.98,215.62h45l-22.57-55.72L957.98,215.62z"/>
			</g>
		</g>
	</g>
</g>
</svg>
