<svg id="PWS_reversed" data-name="PWS reversed" xmlns="http://www.w3.org/2000/svg" viewBox="0 0 325.09 131.71"><defs><style>.cls-1{fill:#fff;}</style></defs><path class="cls-1" d="M127.13,31.35h12.16c6.83,0,9.35,4.36,9.35,8.92,0,4.4-2.34,9.3-9.8,9.3h-3.46V59.65h-8.25ZM137.42,44.3c2.59,0,3.63-1.5,3.63-3.91s-1-3.77-3.66-3.77h-2V44.3Z" transform="translate(-5.07 -6.44)"/><path class="cls-1" d="M155.86,31.35h8.64l10.74,28.3h-8.19L165.5,55H154.86l-1.55,4.61h-8.18Zm7.91,18.59-3.59-11.21-3.62,11.21Z" transform="translate(-5.07 -6.44)"/><path class="cls-1" d="M177.31,31.35h13.43c6.36,0,9.08,3.65,9.08,8.09A6.91,6.91,0,0,1,196,46c1.69.87,2.59,2.82,3.86,6.18l2.8,7.47h-8.11l-1.49-4.19c-1.73-4.86-3-7.64-5.28-7.64h-2.25V59.65h-8.25Zm10.5,12.12c2.66,0,4.21-1.33,4.21-3.82s-1.45-3.74-4-3.74h-2.42v7.56Z" transform="translate(-5.07 -6.44)"/><path class="cls-1" d="M204.56,31.35h8.25V44.17l9.43-12.82h8.66L221.31,44.5l9.94,15.15h-9.84l-8.53-13.24h-.07V59.65h-8.25Z" transform="translate(-5.07 -6.44)"/><path class="cls-1" d="M231.63,50.4c2.28,1.86,4.46,2.82,6.43,2.82,1.52,0,2.34-.83,2.34-1.95,0-3.07-8.77-3.49-8.77-11.79,0-3.57,2.08-8.51,8.33-8.51a10.49,10.49,0,0,1,7.42,3v7.47c-2.28-2.53-4.11-3.69-5.87-3.69-1.38,0-2.28.75-2.28,1.95,0,3.45,9.08,3.82,9.08,11.87,0,4.07-2.38,8.43-8.53,8.43a16.57,16.57,0,0,1-8.15-2Z" transform="translate(-5.07 -6.44)"/><path class="cls-1" d="M280.6,59.65h-3.45L274,51.31H264l-3,8.34h-3.45l10.12-28.47h2.38Zm-15.3-12h7.32l-3.79-10.25Z" transform="translate(-5.07 -6.44)"/><path class="cls-1" d="M304.12,59.65h-2.9L285.47,37.86V59.65H282.3V31.35H285l15.95,21.91V31.35h3.18Z" transform="translate(-5.07 -6.44)"/><path class="cls-1" d="M308.47,31.35h9.15c8.7,0,12.54,7.47,12.54,14.15,0,7.26-4.73,14.15-12.5,14.15h-9.19ZM311.86,56h5.38c7.67,0,9.43-7,9.43-10.5,0-5.69-3-10.5-9.6-10.5h-5.21Z" transform="translate(-5.07 -6.44)"/><path class="cls-1" d="M127,71.84h9L139.24,86h.08l3.43-14.14h7L153.36,86h.08l3-14.14h9l-9.32,31.51h-5.77l-4-15.62h-.08l-3.79,15.62H136.7Z" transform="translate(-5.07 -6.44)"/><path class="cls-1" d="M169.53,71.84h9.63v31.51h-9.63Z" transform="translate(-5.07 -6.44)"/><path class="cls-1" d="M185.66,71.84h9.63V95.45H206.1v7.9H185.66Z" transform="translate(-5.07 -6.44)"/><path class="cls-1" d="M209.77,71.84h13.79c10.65,0,14.92,8.87,14.92,16.17s-3.83,15.34-13.18,15.34H209.77Zm12.18,24c4.68,0,6.89-2.64,6.89-8.27,0-4.16-1.65-8.27-6.85-8.27h-2.58V95.87Z" transform="translate(-5.07 -6.44)"/><path class="cls-1" d="M244,71.84h9.64V95.45h10.81v7.9H244Z" transform="translate(-5.07 -6.44)"/><path class="cls-1" d="M268.08,71.84h9.64v31.51h-9.64Z" transform="translate(-5.07 -6.44)"/><path class="cls-1" d="M284.13,71.84h20.08v6.65H293.76v5.73h9.8v6.66h-9.8v12.47h-9.63Z" transform="translate(-5.07 -6.44)"/><path class="cls-1" d="M309.09,71.84h20.6v6.65h-11V84h10v6.65h-10v6h11.14v6.65H309.09Z" transform="translate(-5.07 -6.44)"/><path class="cls-1" d="M139.72,118.74a7.79,7.79,0,0,0-5.55-2.55c-2.18,0-3.74,1.18-3.74,2.91,0,4.69,10.23,4.62,10.23,12.41a6.43,6.43,0,0,1-6.63,6.63,10.15,10.15,0,0,1-6.62-2.26v-4.44a7.93,7.93,0,0,0,6.24,3.55c2.64,0,3.85-1.72,3.85-3.09,0-5.06-10.23-5.63-10.23-12.34,0-4,2.84-6.53,7.18-6.53a9.27,9.27,0,0,1,5.27,1.72Z" transform="translate(-5.07 -6.44)"/><path class="cls-1" d="M157.8,116.51h-10v7.39h9.68v3.16h-9.68v7.6h10.34v3.16H144.37V113.36H157.8Z" transform="translate(-5.07 -6.44)"/><path class="cls-1" d="M167.76,113.36c4.79,0,7.77,2.61,7.77,6.85a6.12,6.12,0,0,1-3.95,6c2.15,1.47,3.47,3.73,5.27,6.78,1,1.68,1.6,2.51,3.23,4.84H176l-3.12-5c-3.13-5-4.55-5.6-6.28-5.6h-1.43v10.62h-3.4V113.36Zm-2.57,10.69h2.19c3.64,0,4.68-1.94,4.65-4,0-2.29-1.35-3.69-4.65-3.69h-2.19Z" transform="translate(-5.07 -6.44)"/><path class="cls-1" d="M188.24,138h-.69l-10.24-24.68h3.4l7.11,17.18,7.08-17.18h3.37Z" transform="translate(-5.07 -6.44)"/><path class="cls-1" d="M204.31,137.82H200.9V113.36h3.41Z" transform="translate(-5.07 -6.44)"/><path class="cls-1" d="M229.7,118.81a15.18,15.18,0,0,0-8.15-2.55,9.15,9.15,0,0,0-9.44,9.36c0,5.49,3.89,9.3,9.58,9.3a15.11,15.11,0,0,0,8.26-2.77V136a16.87,16.87,0,0,1-8.57,2.15A12.28,12.28,0,0,1,208.61,126a12.54,12.54,0,0,1,13-12.92,20,20,0,0,1,8.11,2Z" transform="translate(-5.07 -6.44)"/><path class="cls-1" d="M247.54,116.51h-10v7.39h9.68v3.16h-9.68v7.6h10.34v3.16H234.11V113.36h13.43Z" transform="translate(-5.07 -6.44)"/><path class="cls-1" d="M71.58,32.26c.13.45.9.93,2.06.86s2.66,0,2.14,1.38,1,1,2.17.17c.52-.37-1.24-1.71-3.59-3.11H71.1A3,3,0,0,1,71.58,32.26Z" transform="translate(-5.07 -6.44)"/><path class="cls-1" d="M85.48,31.56a12,12,0,0,1,.08,1.36c2,.79,4,1.45,4.53,1.24,1.14-.44.53.14.48.19s-1.3,1.24.44,1.35,1.48.21,1.63.36-2.32.89,1.24.93c0,0,1.11-.13.62.51s-.69.9.12,1,.7.06.3.82S93.8,42,92.74,42.06c0,0-.3.26-.21-.4s-.21-.09-.39.45-.82,1.29-1.09.56-.85,0-1,.15-1.23-.5-2.52-2.16-1-1.2-1.81-1.13a7.06,7.06,0,0,1-4.19-.34c-1.9-.84-5.29-.79-4,0s5,.36,6.11,1.12,3.24,1.21,2.26,2-1.32-.42-1.43.26.26,1.35-.65.92-.74-1.63-4-1.49-6.16-2.61-3.61-.23,2,.19,4.69,2.23,3,1.18,4,1-.38.89,1,.83-.6,2.13-1.78,1.18.14,1.13,1.68,1.33-2.58,2.34-2.8-.58c0,0-2.53-2.91-3.89-1.89s.15-.14,2.87,1.79a.33.33,0,0,1-.38.42c-.48,0,1.85.87-.83.56s.24.62,2.16,1,1.59-.69,2.59.8,0,1-1,1.11-1,.8-4.85-.73-4.84-.29-1.76.8,4.49,1.4,4.63,2c0,0,.16-.35,1.41.2s3.4-.06,3,1,.28,1.29-.76,1.61c0,0-.35,0-.3-.33s-.43,0-.23.84,0,.25-.2.48,1.91,1.15,3,1.51,0,.48-1,0-1,.23.65.67-2,.15-3.82-.74-3-.23-5.94-2.16-8.08-3.47-9-3.4,1.1.79,2.35,1.43.66.44,1,.85A6.57,6.57,0,0,0,76.25,57c1.35,0,1.59,0,2.17.38s-.24,1,1.24.83-.07.6,1.43.62,1.18-.4.64,1.1c0,0-.21.11.36,0s.66-.27.51.29.37.91.84,1-.14-.17.88.27a28,28,0,0,0,4.55,2s.43,0-.14.52-.59.62-.33.71-.17.21-1.37-.2l-1.2-.4s-.4.3.34.52-.13,1.13-.23,1.15-1.84-1-2.12-1.94S82.23,61.65,82,62.21s-1,1.71-1.4,1.51-.92.77-.82,1-1,.32-2.12-.4-1.37-1.27-2.49-1.07S75.57,62,75.9,62s.74-.37-.56-.65-.09.35-.93,1.42.08-.49-2.81-.87-4-1.18-3.57-1.77,3.34,0-1.62-2.34S61.34,55,61.15,55.64s2.49.56,2.67,1.83-1,1.07.56.87,2.77.27,2.8.69-.92,2.69-1.34,1.57-1.57-.63-2.14-1-.66-.26-.59-.71-.56.58-.75.37,0-1-1.65-1.68c0,0,.39-.34,0-.61s.13.69-.26.08-1-.25-.88-1.1-.21-.91-.8-1.31.69-.3.81-.14.57.56.66.2-2-2-4.28-2.48c0,0,.59-.61-.35-1.3s-3.83-.52-4.3-.22-.85,1-.9-.77c0,0-1.64-.51-2.09.16s-.08-.58-1.53-.61-1.61.83-1.12-.94S44,50.17,44.1,48.12s-.15-4.4,1-3.13c0,0,.64.54.25-.71s.46-1.28.76-1.05.69.45.89-.38.57-.23,1.36,0,2,.58,2.18,1,.43.12,1.13.1,2.67-.56,1.79.64-.54.24-1.18.8.22.92,1.35.82.26-1.38.41-1.64.81-.4,2.2.17.52.1.56-.44.71.79.82,1,5.33,1.14,6,.72-.67-.37.91-.88c0,0,0-1.15,1.54-.21s1.45.62,1.93.22-.27,1.5-.55,1.54.52.47.78-.53.19-.88,1.16-.87,2.26.87,4,0,.65,1.15.06,1.43-.18,1,1.3.9,1.06,1.28,3.75.65.49-.46.06-.6-1.31-.54-1.23-1.21-2.8,1.15-2.54-.2.11-1.81,1.3-1.31,1.35-1.42-1.31-1.44-2.47.26-3-.25S69,41.41,67,42.36s-2.42,1.69-2.26.12-1.42.55-1.56.71.28-1.09-.55-.38-1.08.84-.79-.59-.54,0-.8.29-.29.06-.16-3.17-.64.39-1.41-.72,0-.61-.91-.45-1.34.07-.6-.79-1.54.86-.69-.88.43-4.07,1.36-2.78-.86-2.17,1.3-1.49S58.67,31,61.48,32a1,1,0,0,0,1.07.92c1-.06,2.17-.44.36,1.34,0,0-.08,1,.55.6s.24-1.53.82-1.58,1.8.78,2.78.41,3.49.3,3.58.67-2.11,1.48-1.16,1.41,2.35.35,1.91-1.35-.11-.16-2.24-1.89c-.39-.32-.75-.65-1.1-1H11V73.74h0c1.42,0-.52,1.6.66,1.7s1.63,2.46,1.39,4.07,1.11,3.39,1.18,3.91-.33,1.9-1.32.59-.39.84-.11,1.29.6-.07,1.26-.52.88.36,2,3.24,5.72,8.35,5.73,8.94.55.87.23,1.2-.81-.56-1.6-1-.55.23-.55.23c-.7,2.06,5.54,8,6.4,8.12s.87,1,2.64,2,1.47,2.11,2.45,1.88-.72-1.16-1.87-2.26a12.13,12.13,0,0,1-1.81-2c-.29-.41,1.25-.56.45-.61s-2.59-1.74-4.41-3.46-1.07-1.55-.63-2,1.66-2.06,1.76-.46,2.33,3.79,4.1,4.7.27,1.27,2.31,2.91c.87.7,1.7,1.42,2.43,2.12,0-.67,0-1.34.06-1.72.11-1.17.58-1.7-1.15-1.1s-1.81,0-1.81,0c-.69-1.86.12-3.29.91-5.29S32.86,98.47,33,99s.87,1,2.31.85,1.89.43.79,1.58.53.31.53.31c.54-2.09.33-1.23,4-.75s2.47,1.13,1.94,2,1.2,0,1.2,0c1.85-2.18.1-1.9-.3-1.79s-.37-.15-.62-.94-2-2-2.76-2.15a4.83,4.83,0,0,1-2.29-2.3c-.28-.76-1.47-1.73-1.93-1s-.51.38-.51.38c-.69-1.09-.81-.29-3-.75s-1.06-.86-1.06-.86c6.45-.12,8.53,2.15,8.53,2.15,3,.89.75,1.12,2.3,1.78s2.64.81,2.43,1.65S46,100,46,100c6.23,1.25-.72,1.41,2.48,2.58s-1-.75,1.17-.76,1.78-.36,0-1.37-2.36-2.08-4.28-2.34S40.49,95.53,37.92,94s-.66.69-4.51-1.08-2.68-2-.07-2,7.77,2.39,11.43,4.48,2.23.76-.35-1.07a70.56,70.56,0,0,0-9.58-5.8c-3.41-1.65-3.17-1.44-3.74-1.6s-.26-.4-.26-.4c-.11-1.84.58-1,1.73-.76s1,0,.65-.29-.52-.69.06-1.07,2.24,2.11,3.08,3,2.1,1,3.76,1.54,1.9,1.15,1,.82.55.92.24,1.08-.35-.55-1.75-.84,3,2.67,3.55,2.85-.6-.45-.71-.86.75.53,1.75.87-.49-.64-1.36-1.15-.53-1.77.5-.4,4.83,2.91,4.83,2.91.52-1,.61-.33,2.35,1.75,3.78,2.3.34,1.38.34,1.38c-1.09,1,.9.87.9.87,1.1,1.9,6.53,2.37,7.8,2.8s2.9-.32,1.76.84.65,1,2.31,1.73,3-.25,1.73,1,.31,1,.31,1c1.22,2.92-5.39,4.28-5.39,4.28a10.25,10.25,0,0,0-2.86-2.56c-1.26-.49.15-.29.34-1.24s-1-1.59-.79-.89-.47,2.18-1.32,1.71a5.22,5.22,0,0,0-3.91-.6,4.68,4.68,0,0,1-4.31-1.31,2.19,2.19,0,0,0-2-.59c-.64,0-1.35.82-1.31-.29s-.67.08-.67.08c-1.44,1,5.68,2.35,8.21,2.61s6,2.3,5.21,2.48-1.72-.72-1.52.46.21.53-1.13.31-1-1.3-2.84-1-1.74-.65-3.58-.77-2.6.08-.87.55,1.29,0,4.7,2,2.41.46,4.16,1.17.61,1.79.11,2-.68-.46-1,.8-1.33.41-2.32-1.05-2-1.51-3.7-1.12-1.24-.62-1.24-.62c1.31-1.52-.24-.26-1.36-1.19a3.53,3.53,0,0,0-2.63-.72c-.2,0-.88.57-1.47-.32s-4.05-.91-5.17-.07-1.12.7-1.13.33.8-1.38-1.94,0a3.09,3.09,0,0,1-.56.19,1.49,1.49,0,0,1,.14.24c.24.94,3.52,2.67,4.3,3.2a1,1,0,0,0,1.35-.07c2.92.29,4.86,1.29,4.8,1.64s-2.77-1-3.14-.72,1.72,1,3.13,1.2.6.53.6.53c-5,1.06-14.78-7.38-14.34-6.12s10.53,6.21,11.34,7.37,3.89,1.24,2.71,2-6.94-3.38-12.29-5.55-9.49-7.88-9.83-7.15,1.38,4.41,11.23,9.85a51.43,51.43,0,0,1,7.22,4.71c2.51-.3,4.55-1,5.15-2.13,1.44-2.79,2.18-2.07,2.28-1.51s.39.29.83-.55.55,0,.55,0,.06.14.83-.31-1.2-.15-1.37-.79,2-1.5,2.72-.88-.91,1,.07,1.29,4.52-.51,6.3-1.69,4.53-2.82,5.68-4.22,2-1.07,1.79-1-1.1.44.76.24,2-1.56,1.87-2,.1.58-.57,0,.44-1.47.61-1.06,0,.38,1.11.5,3.77-2.4,5.48-4.09,2.5-1.44,2.26-2.07,0-.79,0-.79c2.59-1.87,5.15-5.24,6.46-6.79s-.14,1.73,1.91,0,5.3-8.2,6.12-9.66,2.67-4.14,2.74-5.85.62-1.41,1.11-1.25,1.54-2.43,1.45-2.88-.2-1.22.64-1.35.16-.22,1-2.22-.46-1.47,1.21-.87.82-2,.82-2c.67-1.15,4.24.3,4.08.84s-1.56,1.31-.57,1.25,1.74.92,1.51.84-1.35,1.36-.6,2.06S106.22,76.5,105,77s-1.55,3.67-2.15,4.7-1.17-.22-1.64-.51.75-1.45.39-1.73-2.86,1.78-1.86,2.66,1.85.62,0,3.5-5.87,10.08-6.7,11.15-1.81,2.8-1.56,2.06,0-.5-.89-.53.47-.86.7-1.46-.79-1.24-.87-.45S85.87,101.38,84,103s-6.36,6.91-7.2,7.6-1,.7-.62.92,2.7-1.8,3.73-2.94,1.93-1.52,2.87-1.11,2.41-2.91,4.24-5.65,2.51-1.18,3.06-.62-.33,1.12-1,1.43-4.61,5.43-5,5.69-.53-.29-.72-.1.61.34.48.73-1.68,1.6-1.45,1-.61-.65-1.92,1.08-6.24,3.74-7.43,4.66-.19-.83-1.5.16-2.48,2.48-3.61,2.67a1.69,1.69,0,0,0-1.32,1.78c0,.42,0,.93-.93,1.08a14.42,14.42,0,0,0-3.3,1.78c-.27.12-1.11-.77-.68-1A26,26,0,0,0,65,119.3c.17-.37.44-.63,1.58-.83s4.87-3.34,5.87-4.4-.9.29-1.89.92-7.32,5.33-8.19,5.84-.19-.26-1.82.06.35,1.1-.63,1.34-1.63-.84-1.78-1.11,7.43-6,10.41-7.58S79,105,79.68,104.32s1.59-2.08.51-1.09.24.2-10.74,8-14,6.09-14.26,8.34,11.24,5.38,12.46,5.6c0,0,.81.23,1.35.33s.34,0,.84.49.54.56,0,.59-1.4.06-1.34.7,7.78,2,8.06,1.69,4,0,5.05-.26-.16-.69-.61-.41a5.37,5.37,0,0,1-3-.25,3.79,3.79,0,0,0-1.48-.78c-.79-.31-2.23.38-4,.19s-.69-1.49-.57-1.92.9.12.9.12a.29.29,0,0,1,.08,0c1,.55,2.32.12,3.94.27a9.84,9.84,0,0,1,3.08.82c2.37-.1-.75.94,5.28.47s8.15-1.78,8.91-2.35,1.13-.08,1.13-.08c-4.65,4.94-14.32,2.69-11.54,4.05s14.27-3.71,14-3.34-2.66.72-1,.73,1.65-.81,1.41-.17-2.12,1.35-6.94,3.5-13.5,1.28-14.1,1.15-.56.24-.56.24-.52.95,5.3.81A59.7,59.7,0,0,0,97,129.43c4.71-1.33,3.65-2.42,4.71-1.81s-.26,1.15-1.1,1.53-1.89,1.14-1.26,1.09,1.66-.2,1.46.49-4.46.63-6.27.81a63.62,63.62,0,0,0-7.1,1.82c-.88.22.12-1,.12-1-2.74-.44-2.8.61-4.89.83s-5.58-.48-6.21-.44.08.64-2.32-.13-4.49-.48-5.63-.95.14-.7-.32-1.11-.56-1.1-1.67-.57-10.82-3.57-10.82-3.57c-.4-.15-.11-.44-1.13-.36s-.53-.21-.3-.74-.92-.47-2-1.15-1.1.38-1.08-.67-.84-.77-1.55-.33-.91-.36-.62-.75-.43-.15-.43-.15c-.57.13-.45,1.42,1,1.41s1.4.43,1.18.45-.44.34-.1.47-.51,1.31-2.08.53a3.88,3.88,0,0,0-2.65-.45c.2.17.35.22.52.16.9-.31,1.31,1.11.62,1.59-.18.13-1.3-.39-2.82-1.22-10.14,3-16.9-.36-18-1.49s-2.37-1.07-2.8-1.37-.06-.25-.91,0-3.09-1.31-3.3-1.46-1.12-.79-.37-.67A19.05,19.05,0,0,1,23.73,122a9.56,9.56,0,0,0,3.45.93c.27.11,1.78.61,1.88,1s3.41.66,3.41.66c.77.11.28.9.51.74s.85.12.85.12c2.06.87,4.6-.43,5.71-.44s.67-.23.71-.59,0-.1,0-.1c-3.46,1.78-19-3.18-19-3.77a.32.32,0,0,1,0-.2s-.17,0-.56-.23c-.92-.63-2.56-1.36-2.58-1.7s1.29.34,2.23.87-.71-.88-1.31-1.36a2.65,2.65,0,0,1-.84-1.3c-.06-.23,1.65.42,1.44.89s.85,1.38.85,1.38a52.64,52.64,0,0,0,12.38,3.85c1.59.32,1.11-.13,1.11-.13-7-1-15.4-7-15.4-7-1-.25-.78-1.81.35-.81s2.22.89,1.61.67l-.1,0c-.5-.23-.44-.55-.44-.55.46-1,1.36.61,1.36.61,2.64,3.27,1.88,1.93,3.11,2.43s3.29.92,3.14,1.33-.46-.26-.52.13,4.54,1.44,4.54,1.44a27.71,27.71,0,0,0,6.79,1,68.29,68.29,0,0,1-5.87-3.88c-.6-.69,3.61,1.44,3.44.68s-6.54-4.39-6.18-3.89,4.05,2.39,0,.65-5.71-6.76-7.28-6.72-3.89-4.32-4.65-5.13-2-2.23-1.73-2.74,4,2.32.27-1.13c-1.79-1.68-3.78-5-5.38-7.89v46.33H117.47V31.56Zm-40.65,21c.09-1.36,1.63-.71,1.63-.71,2.12.61.63-.06.63-.06-.29-.24-.27-1.26.47-1.27s1.84,2.05,1.84,2.05c.27.38.44-.05.44-.05,1.19-1,1.45.33,1.33.28s-1,.36-.71,1,2.19.81,4.14,1.51.37,1.2-.09,1.13-3-.5-.15.58,1.21,1.45,1.21,1.45c-1-.91-7.56-4-9-5S44.73,53.89,44.83,52.52ZM75.94,97.31c-.16,1.3-1.78.4-2.54.27s-1-.3-.21.21S73,99.15,73,99.15c-2.75-1.5-3.81-4.05-4.08-3.35s-1.85,4.1-4,2.06-2.21.5-2.56-.94.73-1.21,1-1.54-.16-.77-.76-.79-.33,1.48-.83,1.66-2.53-.38-5.61-1.75-2.76-.27-4.44-1.1-1.71-.21-2.11-.76-.07-1.27-1.35-1.74-3.49-2.24-2.11-1.74S47,89,46,88.31s-1.69-.92-.55-.82,1.58.48,3.11,1.77,1.8.43,2,1.47.29,1,1.51,1,1.67.22,2.13.94a1.08,1.08,0,0,0,1.26.44c3,.82.54-.92.54-.92-3-.86-7.94-4.27-7.94-4.27-2.64-2.76-5.39-1.41-5.12-2.79s-2.53-1.43-4.06-1-.84.59-1.09-.58-1.54,0-2.7.06.56-.47-1-.61-1.89,1-1.48-.38S32,81.9,32,81.9c-1.33,1-1.28-.62-.74-3.05s1,.75,1.08-.44-.1-2.23.9-1.77.77-.19,1.09-.72,2.84.91,3.49,1.3a3.83,3.83,0,0,0,2.13.06c1.52.41-.08,1.61-.08,1.61-1,0-.1.41-.1.41a1.2,1.2,0,0,0,1.27,0c-.07-.7-.26-2.15,1-1.44s1.52.38,1.52.38c.72-1.27.78.67,1,.29a.73.73,0,0,1,.78-.22c5.7,1.84,5.34,1.19,5.34,1.19-.16-.55,0-.54.72-.71s-.49-.93.37-1.05,1.16.62,1.76.9.61-.31,1.24-.11-.08,1.33.27,1.64.35-1.75.36-1.59.6,0,.6,0a18.53,18.53,0,0,1,5-.23s.61.88-.67,1.88,1.33,1.21,3.43,1.46,1.48-.31,4.53,1,1.29-.07,4.22.19-.58.73,0,.72.12.8.8.92-1.6,1.18-6.06-.23L64.64,84c-2.65-.3-.29.45,1.06,1.32s4.37,2.61,7.07,2.4,1.21,1.47.34,2,.12,1.81-1,.55-.82-.22-1.37-.89-.35,0-.77-.06a.33.33,0,0,0-.34.14s0,0,0,0a.2.2,0,0,0,0-.06.49.49,0,0,0-.2-.49c-2.11-.24-1.44-1.59-2.22-.38s4.82,2.72,5.92,2.74.92.29.92.29c-2,1.73-7.37-1.27-9.46-2a59.75,59.75,0,0,1-7.15-2.93c-1-.64-1,0-1,0,4.06,3.46,7.13,3.44,7.75,3.84s2.41-.59,1.75.26.48.87.48.87c2.34-.53-.36.41,1.07.33s2.11.12,1.71.44-1.07.83-.34.86,1.32-.23.81.48,2.69,1.46,4.39,2.42S76.09,96,75.94,97.31Zm3.72-21.7c-1.27.38-.06-1-1.28.86S76.82,74.65,73,73.32c0,0-.6-.27.45-.95s.75-.62-.5-.66.27,2.12-2.59,1.46-5-1.86-4.52-.66.32.16,3.47,1.16,2.18.08,3.3,1.26.7.42-.75,1,.48,1.15-.28,1.35-1.14-2-8.2-2.77c0,0-2.72,0,.47,1.1s1.78,1.13,2.49,1.11.77-.62,1.23,0,.58,1.13,2.9,1.46,1.44-.4,1.88.09-1,.2,0,.75.77-.33.44.75-1.38.43-1.83.76c0,0-.28.38,1,.37s1-.15.8.42-.32.46.27.37-.73,1-2,.8.66-1.47-2.44-2.77-2.37-.75-2.24-.51,2.5.8,2.38,1.62.46.19.66.78-.71.38-1.38.38-.56,0-1.05-.76-1.18.23-2-.63.33-1.12-1.19-.67-1.86.69-1.58-1.21,0-.46.92-.55,2.06-.15.33-1.06-2.06.43-3.84-.54-3.12-1.63-4.53-.93-6.5,2.3-6.95-1.74-2.13-1.43-3.26-3.24.87-5.66,2.9-5.33S47.73,67,50,66.68s-.06,0,.13,1.39.26-.65,1.79-1.42.62,1.36,5.17,1c0,0-1.11,1.54.39,1.48s.66-.76.59-2-1.51-.61-2.65-1.88-2.17-1-2.9-3.08a6,6,0,0,1-.61-.63c-.33-.4.5-.06,1,.09s1.48,1.5,2.54,1.59,3.55,1.83,3.17,2.42-.22.42.54.43,4,.48,4,1.06S62,69,62.89,68.81s2.76-.37,2.16-1.3-3.31-2.85-5.7-3.5-6-2.28-7.38-3.6-2.88-1.24-4.57-2.18-5-1.41-1.94-1.16,1.31-.12.69-.42,2.08.14,4.75,1,4.41,2.69,6.07,3,3.19,1.54,4,1.78.29-.23-.45-.77-1.71-1-1.95-1.63-1-.65-1.14-.74-.05,0,.06-.14.22-.39,1.24.05-1-.69-1.2-1.4,1.16.16,2.16.84,6.47,3.84,7.22,3.89.67,1,.32,1.28.43.91,1.52.73S75.35,67.75,77,67.9s-.17,1.25,1.73,1.16,3.17,1.82,2.41,2.36-.16.61.58.48S80.94,75.24,79.66,75.61Zm-32.41-15c-.73-.86-2.31-.25-1.92-.81s4.42,0,4.42,0c.34.46.54,1.34-1,1.8s-2.7-.81-2.43-1S48,61.49,47.25,60.63Z" transform="translate(-5.07 -6.44)"/><path class="cls-1" d="M71.1,31.56c-.86-1-2.69-2.75-4.32-2.92-2.17-.25-3.14-2-4.05-1.83s-1.38.82-2.57,0-2.66.33-1.23.34,0,.74,3.41,1.05c2.79.26,4.15,1.85,5.72,3.37Z" transform="translate(-5.07 -6.44)"/><path class="cls-1" d="M85.49,31.56a9.42,9.42,0,0,0-1-3.62c-1.17-2-.82-3.77,1-4.57,0,0,.7-.1.8.76s1.47-2.25,4.41-2.28c0,0,.9-.49.34-.6s1.63-.88.65.3,1.23.12,1.74-.36,1.65.52,1.74.81.47-.68,0-1,2.48-1.52-.1-1-1.51-.1-3.65.32-5.64,1.28-2.3-.15,3.83-1.42,4.5-1.93,3.49-1.14-.27-1.15-1.4,1.4-9,4.08c0,0-1.86,0,.81-1.1a5.57,5.57,0,0,0,1.17-1.43c.45-.84.36-.11.68.16s1-.28,1.59-.56.39-.08.41.13,1.23-.56,1.45-.84,3-1.8,3.47-1.64.55-1-2.45.27c0,0-.5.19-.53.37a.16.16,0,0,0,.1.13c.09,0-.34.65-1,.43s-.69.18-1.73-.1a3.32,3.32,0,0,0-2.79.86c-.5.46-.93.87-1.25.89s-.07,1.25-.92,1.1-.52-.69-.52-.69a38.8,38.8,0,0,0-1.9-5.55c-.59-1,0-.76.38-.34-.6-.84-1.79-2.71-1.68-3.51.15-1.11-.22-3.35-1.2-2.76,0,0-.37,0,0,.23s.32.68,0,.34S77.12,6,76.71,6.64c0,0-.58.14-.1.47s.75.48,1.38,2a1.54,1.54,0,0,0,.51.63,1,1,0,0,1,.4.91,2.33,2.33,0,0,0,.75,1.4,15.21,15.21,0,0,1,1.46,4.78,5.88,5.88,0,0,0,.26,2.62c.28.56-.1.57-.45-.62a16.45,16.45,0,0,0-1.29-3.55c-.79-1.54-.67-3-2.13-4s-1.19-2-2.22-1.71c0,0-.26,0,.11.39s.65,0,1.1,1.08c0,0,.16.75-.28.78s1,1.3,1.24,1.94,1.19,2.06,1,2.55-1-1.19-1.68-2.58-1.2-2.25-2.21-2.37a.28.28,0,0,0,.18.36c.28.13.36.23.37.69s-.15,1.06.43,1.23.54-.17.74-.09A2.55,2.55,0,0,1,77,15.88a9.53,9.53,0,0,0,.29,3.88c.21.46,1.16,2,.9,2.48s-.08.76.71.48,1.29.07.35-1.73-1.25-.57-.62-1.33-.16-1.91-.32-2.46.31-.42.43-.1.51,2.1,1,2.3.83,2.31.51,3.11a.88.88,0,0,0,.1,1c-.11-.07-.32-.15-.72.11-.6.39-2.38,1.45-1.48,2.28s.65.89.5.89-.88-.53,0,.51,1.41,1.21,1.56,1.49-.18-.47.17-.64.64,1.24.38,1.45a2.05,2.05,0,0,0-.12,1.21l-.15-.06c-.71-.3.18-.61,0-1.22s-3.11-1.64-3.32-1.79-.32-.11-.13-.34-1-1.29-1.2-.84a.48.48,0,0,1-.53.38c-.88-.27-5.05-3.31-5.74-3.36s-2,0-1.85-.56,1.43.38,1.09-.4S66,21.2,64.84,21a2.26,2.26,0,0,1-1.44-.65,20.72,20.72,0,0,0-2.91-3.25l.1,0c-1.7.34.26.91-.09,1.65s-1.16-.39-1.16-.39c-3.81,1.42-.73.78,4.15,3.84s4,.51,8.45,4.77.33.81-2.25.13-3.2-2.21-5.53-2.61-8.12-2.07-5.08-.3,4.34,2.83,7.45,3.64a40.06,40.06,0,0,1,7.83,3.77Z" transform="translate(-5.07 -6.44)"/><path class="cls-1" d="M81.62,13.61a1.48,1.48,0,0,0-.31-.38C81.55,13.57,81.71,13.76,81.62,13.61Z" transform="translate(-5.07 -6.44)"/><path class="cls-1" d="M11,91.73c-1.7-3.1-3-5.79-3.07-5.72s-1.76-1.59-1.06-1.79,1.88-.46.9-1.36-2.53-2.81-1.58-2.57,1,.13.27-.67-2-4.33-1-3.85.92-.66.48-1.54-2.23-.55,1.44-1.42c3.43-.81,2.4.89,2.26,1.11.07-.07.33-.2,1.37-.17Z" transform="translate(-5.07 -6.44)"/></svg>
