<svg id="DBCA_Black" data-name="DBCA Black" xmlns="http://www.w3.org/2000/svg" viewBox="0 0 91.35 87.09"><defs><style>.cls-1{fill:#ffffff;}</style></defs><path class="cls-1" d="M13.4,77V76H16V78.3a3.05,3.05,0,0,1-1.08.64,3.8,3.8,0,0,1-1.44.28,3.2,3.2,0,0,1-1.61-.39,2.48,2.48,0,0,1-1-1.11,3.6,3.6,0,0,1-.34-1.57,3.48,3.48,0,0,1,.38-1.64A2.67,2.67,0,0,1,12,73.41a3.15,3.15,0,0,1,1.42-.29,2.78,2.78,0,0,1,1.71.46,2.11,2.11,0,0,1,.8,1.27l-1.19.22a1.22,1.22,0,0,0-.47-.68,1.36,1.36,0,0,0-.85-.25,1.6,1.6,0,0,0-1.24.49,2.08,2.08,0,0,0-.47,1.47,2.3,2.3,0,0,0,.47,1.57,1.53,1.53,0,0,0,1.22.53,2,2,0,0,0,.75-.15,2.49,2.49,0,0,0,.65-.35V77Z" transform="translate(-0.93 -2.01)"/><path class="cls-1" d="M16.82,76.2a3.74,3.74,0,0,1,.27-1.51,2.77,2.77,0,0,1,.55-.81,2.43,2.43,0,0,1,.76-.53,3.34,3.34,0,0,1,1.27-.23,2.77,2.77,0,0,1,2.09.81,3.11,3.11,0,0,1,.78,2.25,3.08,3.08,0,0,1-.78,2.23,2.73,2.73,0,0,1-2.07.81,2.74,2.74,0,0,1-2.09-.81A3,3,0,0,1,16.82,76.2Zm1.23,0a2.19,2.19,0,0,0,.46,1.52,1.59,1.59,0,0,0,2.34,0,2.23,2.23,0,0,0,.46-1.54,2.18,2.18,0,0,0-.45-1.51,1.47,1.47,0,0,0-1.18-.5,1.52,1.52,0,0,0-1.18.5A2.24,2.24,0,0,0,18.05,76.16Z" transform="translate(-0.93 -2.01)"/><path class="cls-1" d="M25,79.12l-2.1-5.9h1.29l1.49,4.36,1.44-4.36h1.27l-2.12,5.9Z" transform="translate(-0.93 -2.01)"/><path class="cls-1" d="M29,79.12v-5.9h4.38v1H30.15v1.31h3v1h-3v1.6h3.3v1Z" transform="translate(-0.93 -2.01)"/><path class="cls-1" d="M34.46,79.12v-5.9H37a4.12,4.12,0,0,1,1.37.16,1.35,1.35,0,0,1,.69.56,1.73,1.73,0,0,1,.25.93,1.57,1.57,0,0,1-.39,1.1,1.81,1.81,0,0,1-1.16.54,2.79,2.79,0,0,1,.64.5A7.13,7.13,0,0,1,39,78l.72,1.15H38.34l-.86-1.29a10.43,10.43,0,0,0-.63-.86.94.94,0,0,0-.36-.25,2,2,0,0,0-.6-.07h-.24v2.47Zm1.19-3.41h.88a4.5,4.5,0,0,0,1.07-.07.66.66,0,0,0,.34-.25.76.76,0,0,0,.12-.44.73.73,0,0,0-.16-.48.75.75,0,0,0-.45-.23,7.85,7.85,0,0,0-.87,0h-.93Z" transform="translate(-0.93 -2.01)"/><path class="cls-1" d="M40.42,79.12v-5.9h1.16L44,77.16V73.22H45.1v5.9H43.9l-2.37-3.85v3.85Z" transform="translate(-0.93 -2.01)"/><path class="cls-1" d="M46.34,79.12v-5.9h1.78l1.07,4,1.06-4H52v5.9H50.93V74.48l-1.17,4.64H48.61l-1.16-4.64v4.64Z" transform="translate(-0.93 -2.01)"/><path class="cls-1" d="M53.22,79.12v-5.9h4.37v1H54.41v1.31h3v1h-3v1.6H57.7v1Z" transform="translate(-0.93 -2.01)"/><path class="cls-1" d="M58.72,79.12v-5.9h1.16l2.42,3.94V73.22h1.1v5.9H62.21l-2.38-3.85v3.85Z" transform="translate(-0.93 -2.01)"/><path class="cls-1" d="M66,79.12v-4.9H64.24v-1h4.69v1H67.18v4.9Z" transform="translate(-0.93 -2.01)"/><path class="cls-1" d="M71.74,76.2A3.74,3.74,0,0,1,72,74.69a3,3,0,0,1,.55-.81,2.55,2.55,0,0,1,.76-.53,3.34,3.34,0,0,1,1.27-.23,2.77,2.77,0,0,1,2.09.81,3.11,3.11,0,0,1,.78,2.25,3.08,3.08,0,0,1-.78,2.23,2.71,2.71,0,0,1-2.07.81,2.76,2.76,0,0,1-2.09-.81A3,3,0,0,1,71.74,76.2Zm1.23,0a2.19,2.19,0,0,0,.46,1.52,1.5,1.5,0,0,0,1.18.52,1.48,1.48,0,0,0,1.16-.51,2.81,2.81,0,0,0,0-3,1.49,1.49,0,0,0-1.18-.5,1.54,1.54,0,0,0-1.19.5A2.24,2.24,0,0,0,73,76.16Z" transform="translate(-0.93 -2.01)"/><path class="cls-1" d="M78.4,79.12v-5.9h4v1H79.59v1.39h2.46v1H79.59v2.51Z" transform="translate(-0.93 -2.01)"/><path class="cls-1" d="M2.64,89l-1.4-5.89H2.45l.89,4,1.08-4H5.84l1,4.12.91-4.12H9L7.54,89H6.28L5.11,84.6,3.93,89Z" transform="translate(-0.93 -2.01)"/><path class="cls-1" d="M9.58,89V83.11H14v1H10.77v1.31h3v1h-3V88h3.3v1Z" transform="translate(-0.93 -2.01)"/><path class="cls-1" d="M14.78,87.08,15.93,87a1.43,1.43,0,0,0,.43.86,1.28,1.28,0,0,0,.86.27,1.37,1.37,0,0,0,.87-.24.73.73,0,0,0,.29-.57.56.56,0,0,0-.12-.36,1.06,1.06,0,0,0-.43-.25c-.14-.05-.46-.14-.95-.26a3.31,3.31,0,0,1-1.35-.58A1.55,1.55,0,0,1,15,84.65a1.5,1.5,0,0,1,.25-.84,1.65,1.65,0,0,1,.74-.6,2.9,2.9,0,0,1,1.16-.2,2.5,2.5,0,0,1,1.67.48,1.72,1.72,0,0,1,.59,1.3l-1.19,0a1,1,0,0,0-.33-.65,1.2,1.2,0,0,0-.75-.2,1.35,1.35,0,0,0-.81.21.44.44,0,0,0-.19.37.48.48,0,0,0,.17.36,3,3,0,0,0,1.1.39,5.49,5.49,0,0,1,1.28.43,1.51,1.51,0,0,1,.65.6,1.7,1.7,0,0,1,.24.94,1.75,1.75,0,0,1-.28.95,1.67,1.67,0,0,1-.8.65,3.2,3.2,0,0,1-1.28.22,2.53,2.53,0,0,1-1.72-.52A2.21,2.21,0,0,1,14.78,87.08Z" transform="translate(-0.93 -2.01)"/><path class="cls-1" d="M21.9,89V84.1H20.15v-1h4.69v1H23.09V89Z" transform="translate(-0.93 -2.01)"/><path class="cls-1" d="M25.6,89V83.11H30v1H26.79v1.31h3v1h-3V88h3.3v1Z" transform="translate(-0.93 -2.01)"/><path class="cls-1" d="M31.1,89V83.11h2.51a4.12,4.12,0,0,1,1.37.16,1.31,1.31,0,0,1,.69.56,1.71,1.71,0,0,1,.26.93,1.59,1.59,0,0,1-.39,1.1,1.89,1.89,0,0,1-1.17.54,2.79,2.79,0,0,1,.64.5,6.86,6.86,0,0,1,.67.95L36.4,89H35l-.86-1.28a9.51,9.51,0,0,0-.63-.87.82.82,0,0,0-.36-.24,1.73,1.73,0,0,0-.6-.07h-.24V89Zm1.19-3.4h.88a4.44,4.44,0,0,0,1.07-.07.62.62,0,0,0,.34-.25.78.78,0,0,0,.12-.44.68.68,0,0,0-.16-.48.76.76,0,0,0-.45-.24c-.1,0-.38,0-.87,0h-.93Z" transform="translate(-0.93 -2.01)"/><path class="cls-1" d="M37.06,89V83.11h1.16L40.63,87V83.11h1.11V89h-1.2l-2.37-3.84V89Z" transform="translate(-0.93 -2.01)"/><path class="cls-1" d="M50.3,89H49l-.52-1.34H46.13L45.65,89H44.38l2.3-5.89h1.26Zm-2.19-2.33-.81-2.19-.8,2.19Z" transform="translate(-0.93 -2.01)"/><path class="cls-1" d="M50.93,83.11h1.19V86.3a6.82,6.82,0,0,0,0,1,1,1,0,0,0,.36.58,1.34,1.34,0,0,0,.79.22,1.17,1.17,0,0,0,.76-.21.77.77,0,0,0,.31-.51,5.74,5.74,0,0,0,.06-1V83.11h1.19V86.2a7.39,7.39,0,0,1-.1,1.5,1.52,1.52,0,0,1-.36.74,1.7,1.7,0,0,1-.69.49,4.12,4.12,0,0,1-2.41,0,1.77,1.77,0,0,1-1-1.16,7.15,7.15,0,0,1-.11-1.5Z" transform="translate(-0.93 -2.01)"/><path class="cls-1" d="M56.58,87.08,57.74,87a1.43,1.43,0,0,0,.42.86,1.6,1.6,0,0,0,1.73,0,.7.7,0,0,0,.29-.57.56.56,0,0,0-.12-.36,1,1,0,0,0-.43-.25c-.14-.05-.45-.14-1-.26a3.19,3.19,0,0,1-1.34-.58,1.53,1.53,0,0,1-.29-2,1.65,1.65,0,0,1,.74-.6A2.87,2.87,0,0,1,59,83a2.52,2.52,0,0,1,1.67.48,1.75,1.75,0,0,1,.59,1.3l-1.19,0a1,1,0,0,0-.33-.65,1.23,1.23,0,0,0-.76-.2,1.39,1.39,0,0,0-.81.21.44.44,0,0,0-.19.37.45.45,0,0,0,.18.36,2.9,2.9,0,0,0,1.09.39,5.78,5.78,0,0,1,1.29.43,1.57,1.57,0,0,1,.65.6,1.7,1.7,0,0,1,.24.94,1.76,1.76,0,0,1-.29.95,1.64,1.64,0,0,1-.79.65,3.25,3.25,0,0,1-1.29.22,2.52,2.52,0,0,1-1.71-.52A2.26,2.26,0,0,1,56.58,87.08Z" transform="translate(-0.93 -2.01)"/><path class="cls-1" d="M63.7,89V84.1H62v-1h4.69v1H64.89V89Z" transform="translate(-0.93 -2.01)"/><path class="cls-1" d="M67.41,89V83.11h2.51a4.12,4.12,0,0,1,1.37.16,1.31,1.31,0,0,1,.69.56,1.71,1.71,0,0,1,.26.93,1.59,1.59,0,0,1-.39,1.1,1.89,1.89,0,0,1-1.17.54,2.79,2.79,0,0,1,.64.5,6.86,6.86,0,0,1,.67.95L72.71,89H71.29l-.86-1.28a7.84,7.84,0,0,0-.63-.87.82.82,0,0,0-.36-.24,1.7,1.7,0,0,0-.59-.07H68.6V89Zm1.19-3.4h.88a4.44,4.44,0,0,0,1.07-.07.62.62,0,0,0,.34-.25.78.78,0,0,0,.12-.44.68.68,0,0,0-.16-.48.73.73,0,0,0-.45-.24c-.09,0-.38,0-.87,0H68.6Z" transform="translate(-0.93 -2.01)"/><path class="cls-1" d="M78.68,89h-1.3l-.51-1.34H74.51L74,89H72.76l2.3-5.89h1.25Zm-2.2-2.33-.81-2.19-.8,2.19Z" transform="translate(-0.93 -2.01)"/><path class="cls-1" d="M79.34,89V83.15h1.19V88h3v1Z" transform="translate(-0.93 -2.01)"/><path class="cls-1" d="M84.3,89V83.11h1.19V89Z" transform="translate(-0.93 -2.01)"/><path class="cls-1" d="M92,89h-1.3l-.51-1.34H87.78L87.29,89H86l2.3-5.89h1.25Zm-2.2-2.33-.81-2.19-.8,2.19Z" transform="translate(-0.93 -2.01)"/><path class="cls-1" d="M29.3,28.65c-.09-.52-.56-1.22-.68-2a4.11,4.11,0,0,1,.07-.78,3.29,3.29,0,0,1,.68-1.8c.13-.06.34-.22.29-.37a1.31,1.31,0,0,0-.75.48,3.93,3.93,0,0,0-.6,1.17s0,.12,0,.18a3.89,3.89,0,0,0,.27,2.18A2.14,2.14,0,0,0,29.3,28.65Zm63,38.85v0h0a1.73,1.73,0,0,1-.12.46,4.87,4.87,0,0,1-1.12.42,21.91,21.91,0,0,1-3.64.25l-1.12.07-4.48.38c-1.39.1-2.67.32-4,.45a18.25,18.25,0,0,1-3,.16c-.78,0-1.64.12-2.42.08-.29,0-.58,0-.85,0s-.51.06-.78.06-.41-.06-.61-.06-.48.06-.71.06H68.8c-.48,0-.9.16-1.34.16a10.6,10.6,0,0,0-1.38,0c-1.47.25-2.78.19-4.14.34h0v0a26,26,0,0,0-3.17,0h-.06s0,0-.06,0c-1.87,0-3.28-.12-4.86-.19s-3.24-.32-4.95-.43a20.54,20.54,0,0,0-2.48,0c-.81,0-1.54.17-2.3.24s-1.51,0-2.28,0-1.56,0-2.31,0l-2.27.06c-.85,0-1.87.07-2.76,0-2.62-.14-4.86-.29-7.44-.29a3,3,0,0,1-.59-.07,2.62,2.62,0,0,1-.56,0c-.41,0-.83-.07-1.24-.08-.88,0-1.76-.16-2.64-.26s-1.65-.32-2.5-.35A21.78,21.78,0,0,1,16.76,69a9.66,9.66,0,0,1-1.36-.34,6.25,6.25,0,0,0-1.4-.43c-.46-.05-1.06,0-1.62-.06s-1-.14-1.46-.16S10,68,9.55,68c-1-.07-2,0-2.9-.12-1.6-.17-2.92-.08-4.34-.34-.16.11-.5.06-.67.09a1.91,1.91,0,0,1-.71-.44v-.21c.26-.3.9-.33.6-1a1.46,1.46,0,0,1,.56-.36,12.18,12.18,0,0,1,3.25-.29,1.3,1.3,0,0,1,.55-.12,28.21,28.21,0,0,0,5.59-.52,8.62,8.62,0,0,0,1.58-.53c.24-.27.55-.35.78-.59.7-.68.73-1.8,1-2.67-.07-1.57.25-3.52.27-5.63,0-.83,0-1.81.1-2.41A10.56,10.56,0,0,0,15.4,51c-.06-.88-.32-1.8-.32-2.61a30.13,30.13,0,0,1,.07-3.45,18.08,18.08,0,0,1,.63-3.32c.15-.51.32-1,.52-1.55s.44-1,.6-1.49c.1-.37.13-.75.23-1.12a8,8,0,0,1,.29-1c.17-.35.44-.66.6-1.05.06-.15.08-.37.15-.56s.19-.34.25-.49c.21-.6.29-1.36.53-2a15,15,0,0,0,.8-1.77,7.1,7.1,0,0,0-.05-1.92,7.78,7.78,0,0,1,.22-3.25A8.27,8.27,0,0,1,20.1,24,12.18,12.18,0,0,0,20,20.92c0-.31-.14-.63-.16-.92s.06-.46,0-.7-.15-.52-.19-.79-.07-.8-.12-1.16a14.4,14.4,0,0,1-.06-1.93,3.19,3.19,0,0,1-.56-1.75,2.74,2.74,0,0,1,0-.58c0-.35.34-1.35.6-1.39s.44.24.62.39a4.37,4.37,0,0,1,1,1.19c.15.31.12.9.37,1s.84-.64.94-.83c.35-.57.46-1.52,1-1.91.29,0,.32.28.41.52a2.62,2.62,0,0,1,.3,1.43c-.36.46-.37,1.27-.68,1.78-.25,0-.59-.17-.74,0,.15.22.52.1.74.24s.51.19.83.22c0,.19.24.15.38.25s.29.5.52.68c-.44.39-.08.7.26,1s.9.61,1,1-.15.83-.4,1.22c-.36.09-.63.34-1,.21-.19.2-.58.18-.78.37-.08.69.34,1.14.51,1.65a3.27,3.27,0,0,0,.15.64,5.19,5.19,0,0,0,.78.87,3,3,0,0,1,.68,1c.05.22-.1.57.26.64-.09-.58.4-.83.49-1.32.35-.31.59-.73,1.12-.87a3.89,3.89,0,0,1,1.12-.69c.3-.14.62-.31.93-.43.73-.27,1.71-.71,2.49-1a10.08,10.08,0,0,1,1.28-.5,4,4,0,0,1,1.46-.31.77.77,0,0,1,.47.48c0,.32-.37.47-.63.64s-.51.39-.74.53c-.58.35-1.16.57-1.65.93s-1,.58-1.56,1-1.05.7-1.49,1.09a2.5,2.5,0,0,0-.63.75,3,3,0,0,0,.36,2c.08.2.18.51.3.56a3.68,3.68,0,0,0,.81-.25,7.4,7.4,0,0,0,.8-.34,1.13,1.13,0,0,1,.7-1c-.14-.41.24-.44.46-.61s.25-.34.4-.36.29.14.41.14.31-.22.46-.22.39.22.51.34c.29-.22.68.08.56.34.2,0,.29-.12.39,0s0,.37.07.59c2,.1,4.7.08,7,.12l5.53.1c1.7,0,3.24,0,5.45.05,1.73,0,3.72.12,5.45.07.2-.26.15-.65.47-.83.15,0,.24.07.39,0s.29-.28.51-.3c.37,0,.47.32.75.34s.32-.15.45-.15a1.79,1.79,0,0,1,.9.4c.07.07,0,.19.14.27s.3.19.37.31,0,.46.19.7.46.2.64.3a1.43,1.43,0,0,0,.7.24c.29-.19.32-.7.42-1.14a2.3,2.3,0,0,0,.22-1.2c-.11-.51-.62-.68-.83-1.12a16,16,0,0,0-4.48-2.63,6.18,6.18,0,0,0-1.12-.65c-.61-.51-.27-1.17.53-1.24.15.12.34.06.53.09.59.14,1.15.51,1.74.71.28.1.56.14.83.26s.51.23.79.34a16.76,16.76,0,0,1,2.08,1c.24.14.49.26.71.41a3.32,3.32,0,0,1,1.68,3.19c.28-.12.22-.37.26-.81A13,13,0,0,0,70.29,22a2.48,2.48,0,0,0,.15-1.29c-.66.09-1.25-.63-2-.37a1.32,1.32,0,0,1-.53-1.22A7,7,0,0,0,69.41,18a.61.61,0,0,0,.22-.49c0-.26-.24-.29-.22-.53.32-.49,1.08-.52,1.56-.86-.53-1.16-1-3.4.25-4.16a1.92,1.92,0,0,1,.53.87c.18.59.41,1.62.9,1.95s.73-.26.93-.72c.34-.76.78-1.56,1.61-1.69a1.69,1.69,0,0,1,.26,1.08,9.77,9.77,0,0,1,0,1.21c0,.39-.21.76-.29,1.13-.17.89-.07,1.87-.19,2.85,0,.23-.12.46-.15.68a18.35,18.35,0,0,1-.27,2A9.87,9.87,0,0,0,74.17,23a4.8,4.8,0,0,0,.22,1.32l.16.71a16.82,16.82,0,0,1,.27,4.16,13.89,13.89,0,0,0-.27,1.77,4.35,4.35,0,0,0,.52,1.62,11.39,11.39,0,0,1,.46,1.53c.22.71.49,1.54.66,2.22s.5,1.23.68,1.84a18.39,18.39,0,0,0,.7,2.37,14.45,14.45,0,0,1,.93,1.77c.1.39.2.78.27,1.18S79,44.45,79,45a29.68,29.68,0,0,1-.19,3.4c0,1.1,0,1.66,0,2.47s.12,1.95,0,3c-.06.75,0,1.65,0,2.55A16.63,16.63,0,0,0,79,59.28,7.7,7.7,0,0,0,80,64a4.63,4.63,0,0,0,1.84,1c.28.1.61.24.86.3a4.54,4.54,0,0,0,1.07.14c.2,0,.42.1.64.12.75.07,1.57.1,2.35.17s1.52,0,2.2.08c.19,0,.38.11.56.14a4.57,4.57,0,0,1,.65,0c.71.16,1.49.14,1.78.78a1.57,1.57,0,0,0-.1.44C92,67.3,92.19,67.33,92.28,67.5Zm-.82.31c.24-.7-.68-.22-1-.22a6.17,6.17,0,0,1-1.12-.12c-.1,0-.14.09-.26.09-.4-.06-.84,0-1.18-.06a8.42,8.42,0,0,0-.87,0c-1.12,0-2.24,0-3.32-.06-.11,0-.19,0-.29,0a7.44,7.44,0,0,1-2.39-.3.71.71,0,0,1-.28.1,5.06,5.06,0,0,0-1.37-.12c-.24,0-.42-.22-.68-.14a2,2,0,0,0-1.15-.18,7.85,7.85,0,0,1-.94-.22c-.1,0-.22,0-.32,0s-.12-.08-.18-.08-.21,0-.31,0a10.3,10.3,0,0,0-1.24-.12c-.24,0-.46.21-.69.23s-.33-.11-.5-.07-.11.1-.22.1c-1.15.12-2.12,0-3.24,0-.22.2-.64.07-.86,0a6.82,6.82,0,0,0-1.56,0c-1.07.2-2.07-.09-3.21.12a4.62,4.62,0,0,1-.87.22c-.22,0-.45-.24-.67-.24s-.36.22-.53.24,0-.22-.14-.22-.3.22-.56.22c-.08,0-.06-.17-.11-.27s-.14.15-.26,0,0-.24.07-.38c-.14-.08-.2.22-.34.14-.14-.41.31-.65.34-1.09.32-.3.85-.22,1.31-.37.15-.05.28-.19.44-.25a2.51,2.51,0,0,1,.49-.12,3.94,3.94,0,0,1,1.31.08,10.83,10.83,0,0,0,1.39,0,7.31,7.31,0,0,1,1.18-.1,8.1,8.1,0,0,0,.85,0c.21,0,.43,0,.65,0,.52,0,1.08-.12,1.59-.14s1.12-.15.83-.73c0,0,0,0,0,0-.49,0-1.12.15-1.66.17-.12,0-.26-.07-.37-.07-.53,0-1.31.12-1.92.15a4.75,4.75,0,0,1-.54,0c-.58,0-1.17.14-1.77.15a.81.81,0,0,1-.22,0c-.44,0-.88.13-1.31.15s-.71-.09-1,0-.54,0-.81.07-.39.14-.6.16-.25-.07-.37-.07-.44.2-.64.07.06-.23-.07-.23c-.31,0-.49.29-.71.24s.1-.2.08-.39c-.25,0-.34.32-.56.15,0-.35.39-.35.48-.66-.17-.29-.44-.06-.68,0s-.61,0-.78.22c-.27,0-.38.12-.6,0a1.64,1.64,0,0,1-.93.54c-.07,0-.08.15-.12.22-.54.27-1,.75-1.7.73a1.52,1.52,0,0,1-1,.46,4.08,4.08,0,0,1-1.68.64,2.75,2.75,0,0,1-.4.26,8.27,8.27,0,0,1-.87.1c-.17,0-.27.14-.41.15a1.53,1.53,0,0,0-.3,0c-.12,0-.21.1-.32.12a5,5,0,0,1-.94.12l.48-.43A16.66,16.66,0,0,0,51,65.59c1-.61,1.83-1.46,2.76-2.09a1.12,1.12,0,0,1,.87-.14c1.41.16,3.58-.22,5,.07a1.72,1.72,0,0,1,1.68-.51A8.11,8.11,0,0,1,63,62.79c.77-.07,1.6-.21,2.38-.27A13.16,13.16,0,0,0,68.66,62a1.76,1.76,0,0,0,.48-.86,3.79,3.79,0,0,0,.18-1A16.3,16.3,0,0,0,69,56.88a6.16,6.16,0,0,1-.15-1.05,5.61,5.61,0,0,0-.12-.85c-.07-.64-.07-1.07-.13-1.63a8.53,8.53,0,0,0-.41-2.17c0-.12-.15-.22-.2-.34a12.24,12.24,0,0,1-.51-1.24,11.06,11.06,0,0,1-.5-2.2c-.05-.34-.18-.65-.22-.95s0-.41.07-.68,0-.47,0-.68a7,7,0,0,1,.18-1,5.72,5.72,0,0,1,.34-1.73,3.15,3.15,0,0,0,.19-.27,5.73,5.73,0,0,0,.31-.81,2.07,2.07,0,0,0,.22-.49,4.05,4.05,0,0,0,0-1c-.09-.87-.29-1.63-.33-2.43a26.94,26.94,0,0,0-.2-3,1.79,1.79,0,0,0-.29-.78,2.42,2.42,0,0,0-1-.12,13.63,13.63,0,0,0-2,.4,2.54,2.54,0,0,1-.29.28c-.09,0-.09-.11-.21-.07s-.2.15-.25.29c-.14,1.2-.14,2.71-.22,4.32-.1,1.95-.32,4-.56,5.7,0,.11,0,.17,0,.24s-.15.31-.07.49a.65.65,0,0,0-.11.22,2.87,2.87,0,0,1-.07,1.12c0,.34-.19.7-.24,1.06s-.07.67-.14,1a26.39,26.39,0,0,1-1.34,4.34,9.78,9.78,0,0,1-.83,1.72c0,.08-.05.15-.07.3a12.38,12.38,0,0,0-.86,1.5,3.72,3.72,0,0,1-.81,1.13c-.16.65-.75.87-1,1.46-.9.8-1.63,1.78-2.58,2.53a27.44,27.44,0,0,1-2.55,2.51,17.17,17.17,0,0,1-3.32,2.29c-.48.29-1.12.9-1.71.93s-.75-.56-1.31-.62c-.73-.53-1.43-1.07-2.09-1.6-.37-.29-.76-.61-1.08-.9-.65-.57-1.28-1.19-1.85-1.75a4.48,4.48,0,0,0-.46-.42c-.1-.08-.15-.25-.26-.34a4.33,4.33,0,0,1-1.17-1.24A8.54,8.54,0,0,1,37.54,59c-.1-.15-.15-.32-.27-.47s-.27-.27-.37-.43a2.1,2.1,0,0,1-.15-.3,24,24,0,0,1-1.9-2.82c-.17-.3-.36-.59-.53-.9s-.42-1.05-.66-1.57c-.12-.29-.31-.56-.44-.87a10.28,10.28,0,0,0-.34-1,12.2,12.2,0,0,1-1.12-3.5c0-.08-.1-.12-.12-.22a14.64,14.64,0,0,0-.29-1.53c-.12-1-.12-2-.18-3A10,10,0,0,1,31.08,41a10.87,10.87,0,0,0,0-1.51c-.08-1.88.25-3.56.19-5.23a.45.45,0,0,0,0-.52,3.06,3.06,0,0,1-.68,0c-.34-.1-.52-.46-.81-.63-.49-.29-1.61-.1-2.51-.24,0,0,0,.07-.07.09a4.07,4.07,0,0,1,0,1.51A14.73,14.73,0,0,0,26.82,36a27.69,27.69,0,0,1-.34,2.91,6.45,6.45,0,0,0-.18.68,2.76,2.76,0,0,0,.18.87c.16.49.53.91.68,1.39.09.27.14.51.19.68a9.69,9.69,0,0,1,.08,1.13,6.21,6.21,0,0,1,.17,1.38c-.1.81-.22,1.56-.37,2.36a7.54,7.54,0,0,1-.48,1.66c-.22.51-.67.75-.86,1.24,0,0,0,.07,0,.1s-.08.08-.1.12a3.54,3.54,0,0,0-.07,1.15s0,.15-.08.17c-.19,3.12-.46,6-.75,8.87.19,1,1.46.85,2.36,1,1.1.12,2.56.34,3.87.51a11.54,11.54,0,0,1,1.86,0,4.84,4.84,0,0,1,.8.33c.21.06.44,0,.63.11s.37.36.63.38c.85.07,1.85.07,2.73.1.27,0,.58-.08.85-.07a6.86,6.86,0,0,0,.68.12,4,4,0,0,1,1.37.2,16.64,16.64,0,0,0,3.82,3c0,.23.4.28.4.45-1.17-.19-1.83-.67-2.91-.9-.21-.34-.51-.36-.92-.51s-.8-.21-1.17-.34a3.37,3.37,0,0,0-1.15-.41c-.33-.41-1-.41-1.56-.61-.07-.17-.12-.37-.28-.46-.42.12-.81-.37-1.08-.22,0,.09.34.14.3.37-.13,0-.2-.16-.44-.1,0,.16,0,.14,0,.33a.67.67,0,0,1-.5,0c0,.08.09.18,0,.23s-.22-.08-.44,0c-.12-.22-.42-.23-.71-.27s-.81.09-1.19,0c-.2,0-.39-.14-.59-.16-1-.13-2.09-.13-3.17-.25-1.41-.14-2.45-.1-3.74-.14-1,0-2-.13-3-.22.2.58.71.54,1.34.7a5.14,5.14,0,0,0,1,.18,15.94,15.94,0,0,0,2.39.11,23.55,23.55,0,0,1,2.7.3,5.26,5.26,0,0,1,.85-.12,3.38,3.38,0,0,1,.86.31A4.44,4.44,0,0,1,33,65.79a1,1,0,0,1,.24.56c-.15,0-.21-.29-.39-.19s.15.19.12.38a2.22,2.22,0,0,1-.63-.09c0,.12.15.16,0,.24-.57-.44-1.54-.17-2.24-.31a2.83,2.83,0,0,0-.44-.11c-.66-.07-1.37,0-2.07-.07s-1.75,0-2.41-.15a6.59,6.59,0,0,0-1.27-.12,6.34,6.34,0,0,0-.93-.09c-.32,0-.58.15-.83.17-.72,0-1.55-.3-2.31-.07a1,1,0,0,0-.78-.15c-.32,0-.63,0-1,0-.12,0-.24.09-.37.1A6.28,6.28,0,0,1,17,66c-.56.07-1.19,0-1.71.07-.09,0-.19.08-.27.08a1.92,1.92,0,0,1-.34,0,10.89,10.89,0,0,1-1.72.44c-1.88.2-4,.07-6.53.15a17.41,17.41,0,0,1-1.75.07,23.25,23.25,0,0,0-2.91-.18c.2.32.59.44.9.64.06-.1.28.07.25.07a15,15,0,0,0,1.87-.1,7.39,7.39,0,0,0,2.35,0c.28,0,.6-.06.87-.06s.36.09.53.09.25-.09.35-.09c.44,0,.78,0,1.24,0,.14,0,.05.14.19.12.32-.17.71.19,1.15,0,.44.22,1.15-.07,1.61,0,.1,0,.14-.17.26-.18.51.13,1,0,1.52.15.61-.44,1.26.53,1.95.07.41.07.8.22,1.12.24s.75.1,1.16.13c.68-.59,1.61.27,2.42,0a5.22,5.22,0,0,0,2.53.17c.1,0,.07-.19.22-.19a3,3,0,0,0,1.24.31c.1,0,.21-.12.31-.12a4.87,4.87,0,0,1,.52.12c.36,0,.8-.16,1,.18a1.08,1.08,0,0,1,1.16,0c.1,0,.05-.15.18-.12a2.79,2.79,0,0,1,1.12.15c.31.1.68.38,1,.16-.13-.14-.35-.16-.3-.34.15-.48,1.27.25,1.61.1.3.13.64.17,1,.29.31-.22.63.08.85-.14-.25-.3-.78-.27-1.1-.56.69,0,1.22.53,1.9.46.15,0,.3-.17.47-.19a2.24,2.24,0,0,1,.6.16,4.84,4.84,0,0,0,.64.13,9.48,9.48,0,0,0,1-.19c.4,0,.76.14,1,0a1.21,1.21,0,0,0,1.05.07,1.87,1.87,0,0,0,.91,0c.09,0,.14-.12.24-.14.27,0,.58.17.88.16s.43-.21.61-.23c.46,0,.9.31,1.41.33.12,0,0-.24.19-.22,1,.32,1.92.61,2.87,1,.2-.19.45,0,.67,0a4.88,4.88,0,0,0,1.43-.09c.2,0,.37,0,.56,0,.49-.07,1-.26,1.49-.29,0,0-.15.12,0,.22a7.15,7.15,0,0,0,2-.44c.53.3,1.17-.21,1.66-.21a5.31,5.31,0,0,0-.83.75c.49.19,1-.37,1.68-.41,0,.15-.2,0-.15.24a7.15,7.15,0,0,0,1.15-.34,5.8,5.8,0,0,0,1.09-.36c.35.34.73,0,1.12,0s.47.14.71,0c.29.37.83,0,1.26.15.18.39.51.1.74.09s.61.25,1,.29c.15,0,.34-.07.53-.07.51,0,1,.12,1.34-.15a1.69,1.69,0,0,0,1,0,1.19,1.19,0,0,0,.56.17,3.07,3.07,0,0,1,2-.24c.22-.22.65-.08,1-.22.15.07.17.24.34.29l.44-.2a.8.8,0,0,1,.34.27c.46.1.71-.17,1.09-.24a.54.54,0,0,0,.47.1,1.19,1.19,0,0,0,.68.36c.14,0,.27-.14.41-.19.32-.08.85-.1,1.27-.24a4.33,4.33,0,0,1,.59-.22c.28,0,.5.14.75,0,0,.07,0,.07,0,.17s.24-.14.31,0a.58.58,0,0,0-.19.39,4,4,0,0,0,1.78-.34c.41.17.92-.17,1.27-.05.12-.12.53-.17.56.05s-.12.17-.13.27c.52.12.83-.32,1.41-.2-.07.1-.31,0-.31.18.19.22.39-.05.59-.08s.31,0,.46,0a5.44,5.44,0,0,0,1.22-.43c.34,0,.63.29.84.33s.39-.12.56-.12a2.85,2.85,0,0,0,.28.08c.09,0,.21-.06.27-.06s.16.11.26.13c.3,0,.64-.15.93-.15.14,0,.27.05.41.05.71,0,1.44-.34,2.14-.05C88.71,67.89,90.16,68.2,91.46,67.81Zm-.71-.56c.31,0,.81,0,.85-.39a31.37,31.37,0,0,0-5.07-.29,17.27,17.27,0,0,0-2.5-.22c-.25,0-.49-.14-.74-.15l-.28,0a23.4,23.4,0,0,1-2.41-.49,2.61,2.61,0,0,1-.61-.41s-.06-.15-.13-.22-.14,0-.19,0c-.25-.2-.3-.46-.49-.68a3.77,3.77,0,0,1-.53-.63,4,4,0,0,1-.29-.59,7.57,7.57,0,0,1-.27-1.54,19.26,19.26,0,0,1-.28-2.7c-.06-1-.07-2-.19-3,0-.39-.14-.8-.19-1.24s0-.55-.37-.77c-.44.43,0,.85.1,1.4,0,.1,0,.25,0,.37s.16.44.19.64a10.36,10.36,0,0,1,0,1.28c0,.15.09.25.09.4,0,.36-.06.78,0,1.17,0,.21.14.41.14.61s-.07.16-.07.23c0,.59.17,1.23.19,1.79s.32.87.18,1.34c-.15-.15-.12-.08-.3,0a3.36,3.36,0,0,1-.17-1.31c-.07-.9-.22-1.68-.31-2.52,0-.63.07-1.31,0-1.94a35.36,35.36,0,0,0-.83-3.73,5,5,0,0,1-.36-.9c-.18-.25-.25-.61-.49-.81a.88.88,0,0,0-.37.39,2.83,2.83,0,0,1,.66,1,11.83,11.83,0,0,1,.65,3.7c0,.78.15,1.58.18,2.42a20.65,20.65,0,0,0,.16,2.23c.08.47.23,1,.28,1.42,0,.19,0,.39,0,.53.11.76.65,1,1,1.61a.48.48,0,0,1,.27.15c.12.14.21.36.38.46s.23,0,.33.12c.38.17.6.54,1.11.44a6.93,6.93,0,0,0,4.71.66c.34.19.68.09,1.07.14,1.51.12,2.8.08,4.11.17A7.68,7.68,0,0,0,90.75,67.25Zm-13.06-1.7c0-.27-.22-.37-.34-.56s-.19-.47-.34-.59c-.39-.29-1.21,0-1.78-.09-.24,0-.43-.15-.56-.1-.22.31.06.72.18,1a2.38,2.38,0,0,0,.82.17C76.31,65.49,77,65.52,77.69,65.55ZM76.6,63.6a4.44,4.44,0,0,0-.15-1.27c-.17-.81-.24-1.78-.38-2.83s-.13-1.8-.22-2.84c0-.27-.13-.51-.15-.76s0-.22,0-.32-.08-.34-.08-.53a5,5,0,0,0-.82-2.65h-.06c-.33.29-.94.41-1.12.84a2.63,2.63,0,0,0-.12.86c0,.34.06.73.1,1.12a5.6,5.6,0,0,0,0,.58c0,.32.12.66.15,1,0,.56,0,1.12,0,1.68s.17,1.05.22,1.59a26,26,0,0,0,.41,3.31A14,14,0,0,0,76.6,63.6ZM75.16,14c0-.33-.15-.61-.12-.9a1.71,1.71,0,0,0-.25-.22,2.12,2.12,0,0,0-1,1.73,1.26,1.26,0,0,1-.69.52.44.44,0,0,0,0,.28,4.73,4.73,0,0,0,.75.13c.08-.24-.09-.41,0-.68.18-.08.22-.3.44-.34,0,.21.18.09.27.09.22.25,0,.37.07.71A2.71,2.71,0,0,0,75.16,14Zm-.56,3.36a8.15,8.15,0,0,0,.13-1.24c-.22,0-.5.2-.5.44,0,.08.11.19.16.27S74.41,17.39,74.6,17.39Zm-.15,48.52a7.81,7.81,0,0,0-.31-1.63c0-.41,0-.83-.12-1.27a32.49,32.49,0,0,1-.41-3.72c0-.4-.15-.79-.18-1.25s-.14-.94-.19-1.41a2.72,2.72,0,0,1,0-.39c0-.24-.12-.56-.17-.82s0-.59-.09-.88-.32-.47-.37-.69c-.09-.43.34-1,.44-1.34.15-.19.68-.56.61-.89,0-.15-.36-.25-.46-.4a.9.9,0,0,1-.1-.22c-.1-.39-.09-.89-.42-1-.36.05-.73-.1-.89.22,0,.46.68.66.41,1.15-.34-.07-.41-.42-.75-.47.22.56.73,1,.5,1.76l-.34-.07c0-.28-.21-.35-.38-.49,0-.29-.22-.39-.15-.68-.15-.35-.47-.61-.59-.95,0-.1,0-.2,0-.32-.08-.29-.25-.59-.34-.92a10.41,10.41,0,0,1-.34-2.32A1.46,1.46,0,0,1,70,46c.15,0,.19.35.37.27a4.84,4.84,0,0,0,.26-1.51.81.81,0,0,0,.12-.6,11.21,11.21,0,0,1,1.9-2.51s-.05,0-.1,0-.06,0-.06.06a2.31,2.31,0,0,0-1,.73,6.49,6.49,0,0,0-.65.62,9.54,9.54,0,0,0-.47.85,7.94,7.94,0,0,0-.75,1.63,5,5,0,0,1-.22,1,9.34,9.34,0,0,0,.29,3.08c0,.29.12.43.15.6a3,3,0,0,1,0,.3c0,.21.19.38.22.56s0,.33,0,.46.12.21.15.32,0,.31.07.46.13.29.15.44,0,.58,0,.87.22.73.29,1.1a4.73,4.73,0,0,1,.12,1.39c0,.19.1.34.15.51s-.07.12,0,.24a13.79,13.79,0,0,0,.31,1.71c0,.16,0,.36,0,.53,0,.34.09.76.1,1s0,.21,0,.31c0,1.19.27,2.71.27,4a1.11,1.11,0,0,1-.56.34,8.76,8.76,0,0,1-1.17.07c-.24,0-.46.15-.69.18-.84.12-1.67-.1-2.29.26-.75-.29-1.36.18-2.19,0-.16.15-.46.17-.46.39s.47.22.49.51-.19.1-.19.25.36.12.53.09.51,0,.75-.05.51,0,.69,0,.32-.34.53-.36.41-.1.68-.08c.1,0,.18.08.29.08a3.92,3.92,0,0,0,.42,0c.78,0,1.65,0,2.49-.1a8.62,8.62,0,0,0,1.72-.14,3,3,0,0,0,.12-1.64,8.42,8.42,0,0,1,0-1.23c0-.54.12-1.13.1-1.69a5.64,5.64,0,0,1-.13-1.09c0,.22.15.38.18.6a3.86,3.86,0,0,1,0,.76c0,.24.14.47.16.75a22,22,0,0,0,.17,2.32,2.92,2.92,0,0,1,.15.71c-.07.36-.44.58-.6.87a1.45,1.45,0,0,0,.9.15c.38,0,.43-.25.5-.49C74.33,65.86,74.36,66,74.45,65.91ZM74,32a5.53,5.53,0,0,0,.1-1.82c-.49.38-.34,1.12-.49,1.67-.39.06-.93.28-1.26.33-.68.11-1.46-.08-2.13,0-.4,0-.72.31-1,0,1-.27,2.22-.2,2.9-.83-.08-.62.24-.78.34-1.15.24-.93-.46-1-.63-1.63-.08-.3,0-.66-.22-.9h-.08a12.7,12.7,0,0,0-.07,1.61c0,.21-.1.44-.12.68a4.68,4.68,0,0,1,0,.65c-.1.32-.53.44-.81.59-.27,0-.51.15-.78.22s-.65,0-1,.12c-.57.12-1.07.31-1.49.37-.19,0-.37,0-.56,0a4.42,4.42,0,0,1-1.19,0c-.51-.06-.68-.57-1.24-.49.07.29.44.29.58.53-.12,0-.17,0-.19.22-.44,0-.52-.19-1-.19.08.36.54.34,1,.34,0,.14.12.19.17.27a1.1,1.1,0,0,0-.93.72c.41.18.61-.16.93-.24a1.87,1.87,0,0,0,.34.08.42.42,0,0,1,.22-.12A12.81,12.81,0,0,1,68,33.2c.35,0,.71-.09,1-.09a6,6,0,0,0,1.75-.06,7.68,7.68,0,0,0,1.56.06c.07,0,.17-.08.24-.08.4-.05.78.08,1.1-.1A1.33,1.33,0,0,0,74,32Zm-.83-14.51c.08-.27-.33-.25-.48-.34s0-.1-.08-.13a.55.55,0,0,0-.53.06c0,.34-.46.34-.44.56,0,.06.2.11.22.21-.22.41-1.05.42-1.42.69-.16.09-.19.29-.36.12,0-.42.42-.46.51-.83-.58.05-.9.66-1.38.61-.11.21-.4.24-.56.41.12.54.9,0,1,.46a1.72,1.72,0,0,1-.41.4c-.17-.11-.66-.3-.66.09.39.2.73.1,1.09.22.22.54.84.2,1.3.1a5.13,5.13,0,0,0-.12-.59c-.12-.07-.18-.09-.22-.19-.18-.56.55-.8.89-.95s.81-.08,1.12-.19c0-.13.13-.28,0-.44s-.36.11-.41-.18c.1-.09.25-.22.37-.19s0,.12.07.15A.84.84,0,0,0,73.21,17.52ZM73,16.78c.22,0,.22-.21,0-.23S73,16.71,73,16.78Zm-.86,1.79c-.06.17.22.14.15,0C72.22,18.52,72.19,18.54,72.16,18.57ZM72,39.9c.15-.42.61-1.63.2-2a3.81,3.81,0,0,0-.8.64c-.08-.1-.16,0-.28-.07s0-.17.06-.27c-.15,0-.32.19-.44,0a13.52,13.52,0,0,1,.22-1.35c-.05-.12-.18,0-.22-.1.29-.23.34-.75.41-1.14s.32-.59.15-.82-.51.07-.71-.15c0-.25-.07-.37-.07-.59a.44.44,0,0,1-.3-.12c0-.32-.19-.2-.26-.42a15.13,15.13,0,0,1-2,.08,17,17,0,0,0,.16,2.17,20,20,0,0,0,.32,3.06c.3,1.08.69,2,.9,3.07-.32-.09-.32-.48-.56-.63-.17.07-.31.17-.48.25-.06.34-.39.66-.34.94a1.82,1.82,0,0,0-.37.9,12.2,12.2,0,0,0-.22,4,14.24,14.24,0,0,0,.59,1.85c.11.32.22.64.34.93a5,5,0,0,1,.44.86,2.8,2.8,0,0,1,0,.29c0,.21.11.39.12.61s.09.55.1.78A10.88,10.88,0,0,0,69,53.88a1.69,1.69,0,0,0,.1.27c0,.34,0,.68,0,1,0,.12.1.22.12.34,0,.29,0,.58,0,.87a10,10,0,0,1,.28,2.51c.22.42,0,.91.06,1.39a4.15,4.15,0,0,1,.14,1.29,1.33,1.33,0,0,1-1.1.9,5.28,5.28,0,0,1-2.06.22c-.17.17-.35,0-.52.07-.38,0-.82.2-1.27.23s-.72,0-1.19.07c-.1,0-.19.1-.31.12s-.35,0-.52,0a3.6,3.6,0,0,0-.78.1c.08.29-.07.66.11.88,1.07,0,2.38-.2,3.55-.15.25-.25,1,.05,1.09-.51,1-.27,2.17-.07,3.2-.39.07,0,.07.1.17.07a7.69,7.69,0,0,1,.27-.9A10.3,10.3,0,0,0,70.31,60c0-.54-.21-1-.24-1.56a5.58,5.58,0,0,0-.19-2c.19-1.41-.41-2.73-.29-4,.24.31.16.95.53,1.11.17-.67-.26-1.33-.42-2.07s-.26-1.06-.41-1.63S69,49,69,48.54a8.69,8.69,0,0,1,.22-3.23,5.66,5.66,0,0,0,.36-.74c.11-.26.32-.48.4-.72a2,2,0,0,0,.07-.37A8.32,8.32,0,0,1,71.78,41C71.49,40.53,71.82,40.26,72,39.9Zm.24-24.82c.11-.54-.5-1-.61-1.6,0-.1,0-.22,0-.34a2.44,2.44,0,0,0-.48-.86c-.25.41.15.85.37,1.19.11.57.09,1.47.67,1.63C72.16,15.08,72.17,15.06,72.21,15.08Zm-.56,5.6c.18-.24.57-.27.52-.71-.2-.12-.52-.51-.76-.23-.09.24.12.34.08.45a1.87,1.87,0,0,1-.68.42A6.16,6.16,0,0,1,69.66,24a12.55,12.55,0,0,1-.75,1.05c-.32.34-.79.61-.93,1.09-.22.05-.3.25-.47.35,0,.45-.41.87-.46,1.5,0,.22.07.47.08.74.05.48,0,1,0,1.46,0,.05.08.12.1.19.08.37,0,.78.19,1.05.79-.08,1.68-.12,2.1-.63,0-.13,0-.15,0-.25.25-.46.2-1,.44-1.41.07.09,0,.31.1.36s.36-.05.61-.09c.19-.24.07-.56.16-.86,0-.1.15-.19.18-.31a5.94,5.94,0,0,0,0-.93c0-.14.13-.22.15-.34s-.12-.37,0-.56c-.26-.42.22-.85.22-1.31,0-.15-.12-.34-.09-.52s.11-.38.16-.58.24-.44.22-.56-.26-.24-.29-.34c-.12-.53.59-.75.56-1.17-.41-.1-.37.51-.83.46,0-.05-.12-.09-.14-.15C71.24,21.75,72,21.34,71.65,20.68Zm-.28-4.84c.12,0,.14-.1.23-.15-.11-.42-.26-.83-.63-.87A1.85,1.85,0,0,0,71.37,15.84Zm-.13.56c.1,0,.2,0,.19-.1a.14.14,0,0,0-.19-.05ZM70.07,63.57c.1.15.56.15.61,0C70.54,63.43,70.09,63.36,70.07,63.57Zm.34-46.83c-.41-.22-.49.24-.41.56,0,0,.07,0,.07,0A.79.79,0,0,0,70.41,16.74ZM67.05,31.45c.07-.27,0-.32,0-.59a7.38,7.38,0,0,0-1.3-.53,5.9,5.9,0,0,0-.56,1A2,2,0,0,0,67.05,31.45Zm-.14-1.24c0-.52-.07-.93-.08-1.58-.39.29-.51.87-.82,1.26A4.1,4.1,0,0,0,66.91,30.21Zm-1.12-4.56a1.86,1.86,0,0,1-.15,1.08,1.11,1.11,0,0,1-.15.67c.1.06-.16.52-.07.57a4.68,4.68,0,0,0,.75-2.51,4.31,4.31,0,0,0-1.62-1.69C64.86,24.43,65.64,24.94,65.79,25.65ZM64.18,29a.47.47,0,0,0,.15-.5,2.47,2.47,0,0,0-1-.34,1,1,0,0,0-.17.44C63.37,28.92,63.84,28.91,64.18,29Zm-.56,1.57c.12-.37.46-.79.41-1.08a.65.65,0,0,0-.82-.31c.07.6-.35,1.88.26,1.92C63.6,31,63.55,30.82,63.62,30.6Zm-.68,2.6c.6.13,1.07-.56.41-.53a.47.47,0,0,1-.41.36Zm-.52-1c.27.14,1,.36,1.12,0a9.9,9.9,0,0,0-1-.16C62.5,32.1,62.38,32.08,62.42,32.18Zm.83,1.65c-.21-.12-.82,0-.75.4,0,0,.09.09.19.05S63,34,63.25,33.83Zm-.68,2.78a5.77,5.77,0,0,0,0-1.8.46.46,0,0,0-.4,0c-.12-.13-.16-.32-.33-.4a4.13,4.13,0,0,1,.07-1.21.54.54,0,0,1-.46-.52,1,1,0,0,0,.16-1c.17-.2.52-.22.9-.23.17-.31.06-.61.06-1a5,5,0,0,0,0-1.45c-.07-.17-.29-.23-.41-.37s-.1-.25-.18-.37-.43-.32-.6-.48c-.49.38-1-.23-1.37-.08l-.16.08c-.05.07,0,.24-.15.29s-.25-.17-.37-.22a4.84,4.84,0,0,0-1.43-.08c-.79,0-1.63,0-2.22,0-2.19,0-5.55-.11-8.45-.19-2.39-.09-4.66,0-7,0-1.65,0-3.61-.07-5.29,0-.12-.41-.51-.07-.75,0a3.58,3.58,0,0,0-1.75,0c-.3.16-.15.84-.19,1.23a2.09,2.09,0,0,1-.08.34c-.08.55-.05,1.07-.1,1.89a3.75,3.75,0,0,0,.69.49,1.32,1.32,0,0,1,.16.81c0,.27-.26.53-.26.72s.24.27.26.45-.24.34-.22.6-.39.12-.53.22,0,.1,0,.12-.11,0-.12,0a2.72,2.72,0,0,0-.16.83c-.06.56,0,1.29-.06,2a26,26,0,0,0-.12,5.08,21.85,21.85,0,0,0,1.92,8.51c.33.26.71-.12,1.06-.34a4.32,4.32,0,0,1,1.46-.62c.44-.09,1.16,0,1.34-.19s.07-.34.12-.53c.1-.44.24-.9.38-1.35.08-.26.13-.53.22-.75s.17-.26.22-.37c.1-.29.15-.63.27-.94.42-1.05.81-2.08,1.27-3.12.42-.88.66-1.9,1-2.82.44-1.15.8-2.12,1.19-3.37A7.47,7.47,0,0,0,42.77,34c0-.34-.22-.79-.53-.81-.13,0-.3.15-.45.19-.61.15-1.34-.19-2.06-.12a3.06,3.06,0,0,1-1.27.25c.07-.56.68-.58,1-.86.1-.36.44-.5.68-.68s.54-.75.88-1a2.38,2.38,0,0,1,1.15-.52,2.54,2.54,0,0,1,1.12.22,1.5,1.5,0,0,1,.61.74c1.07,2.67-.49,5.62-1.08,8.16-.09.05-.09.21-.15.26,0,.25-.09.34-.12.46-.21.64-.33,1.37-.56,2.08s-.5,1.8-.67,2.48a19.5,19.5,0,0,0-.4,2.41,4,4,0,0,0-.09,1,1.11,1.11,0,0,0,.72.84c.45.1.83-.34,1.23-.48a16,16,0,0,0,2.87-3.17c.41-.34.73-.75,1.15-1.09a8.45,8.45,0,0,1,1.77-1,3.28,3.28,0,0,0,.51-.15c.35-.19.59-.54.93-.75.32.12.29.65.6.72.5.12.86-.82,1.13-1,.41.15.49.62.78.9.29-.07.38-.33.63-.45a2.93,2.93,0,0,1,.56,1.07c0,.22,0,.46.19.58s.27-.32.56-.34c.13.43.42.88.25,1.36.26,0,.46.22.71.19s.39-.36.65-.45c.32.16.27.68.59.82.14-.09.19-.26.34-.31.36.17.36.7.6,1,.2.08.23-.24.44-.26.08.65.84.34,1.2.34a1.75,1.75,0,0,1-.75,2.14c.06.41-.11.63-.11.93s-.36.36-.34.53c.44.2,1.17.27,1.74.52.17.11.58.5.84.45s.25-.45.33-.78.26-.58.33-.8c.1-.44.08-.94.18-1.41.17-.88.39-1.76.5-2.56.06-.46.06-.88.08-1.33s.22-1.12.29-1.74,0-1.12,0-1.67c.1-1.13.16-2.29.24-3.34C62.65,37.22,62.55,36.91,62.57,36.61ZM62,27.7c.05-.08.14-.13.12-.29C61.76,27,61.45,27.62,62,27.7Zm-4.65,23c.51-.12,1.57.39,2.16.26-.44-.39-.93-.21-1.41-.56a3.19,3.19,0,0,0-1.2.25c-.33.07-.67,0-1,.12s-.38.19-.6.22c-.05,0-.13,0-.22,0-.56.1-1.14.32-1.64.39-.73,0-1.62-.17-1.87.13a9.19,9.19,0,0,0,4.61-.36c.21-.06.43-.1.61-.16A5.36,5.36,0,0,1,57.39,50.69Zm1.19,5.38c.19-.29.7-.93.53-1.29-.09-.19-.6-.34-.9-.46A6.87,6.87,0,0,0,57.09,54a6.43,6.43,0,0,0-2.8-.27c-.48.07-.9.24-1.34.34a7.34,7.34,0,0,1-.75,0,8.93,8.93,0,0,1-1.05.09c-.34,0-.71-.14-1-.19s-.73-.2-1.15-.27a11.08,11.08,0,0,0-2.77-.15c-1.76.17-3.43.81-5.16.46-.4-.09-.64,0-.93-.12a8.38,8.38,0,0,0-3-.43c-.37.14-1.73.11-1.83.61,0,.19.27.77.46,1.06s.44.42.56.64.32.73.59.87a3.21,3.21,0,0,1,1.58-.46c1.08,0,2.24.66,3.34.78a7.44,7.44,0,0,0,2.48-.44,10.48,10.48,0,0,1,5,0,7.61,7.61,0,0,0,2,.38c.24,0,.54,0,.86-.07.48-.05,1-.27,1.38-.34a7.3,7.3,0,0,1,3.05.07c.29.1.82.68,1.17.56.14,0,.29-.34.41-.53Zm-.18-8.53a2.57,2.57,0,0,1,.4-.56c-.18-.16-.61.28-.59.52C58.33,47.45,58.29,47.54,58.4,47.54Zm-.07.45s0-.06-.12-.08a4.41,4.41,0,0,0-.49,1C58.06,48.77,58.23,48.38,58.33,48Zm-1.12-.2c.17,0,.74-.66.69-.87s-.13-.13-.22-.17C57.51,47.08,57.17,47.47,57.21,47.79Zm-.12-1.37c-.65-.26-.2.79-.41,1.12C57.09,47.37,57,46.82,57.09,46.42Zm-1.41,2.79c.2-.33.53-.71.39-1.11-.15,0-.12.11-.25.08C55.77,48.64,55.7,48.88,55.68,49.21Zm-.27-2.57c.37.13.53-.58.31-.77C55.26,45.79,55.51,46.42,55.41,46.64Zm0,1.34c-.15-.29-.48-.07-.48.2-.11,0-.13,0-.23,0-.17.59.59.59.42,0C55.19,48.08,55.36,48.1,55.41,48Zm-.19,2.71c.51-.81-1-1.29-1.34-.59.1.17.43.06.56.1s0,.34.07.49S55,50.79,55.22,50.69Zm-.52-3.83c.27-.19.51-.8,0-.92C54.73,46.28,54.58,46.6,54.7,46.86Zm.18,2.22c-.06-.22-.4-.26-.59-.27a1,1,0,0,0-.59,0s-.07,0-.19,0c-.41.29-.87,0-1.21,0-.71-.1-1,.42-1.52.59a2.6,2.6,0,0,1-.9.09c-.14,0-.32-.19-.51-.07,0-.15-.39-.05-.37.13a1.65,1.65,0,0,0,1.74.05,1.65,1.65,0,0,0,1,.33c0-.21-.28-.29-.14-.51a2,2,0,0,0,1.22.29c-.07-.27-.42-.26-.47-.53A3.44,3.44,0,0,0,54.88,49.08ZM53.61,47c.53.32.53-1,.09-.75C53.65,46.48,53.68,46.82,53.61,47Zm-.91-1.07a.4.4,0,1,0,.1-.8A1.66,1.66,0,0,0,52.7,45.94ZM53,43.63c-.29-.29-1,.38-.68.78C52.68,44.45,52.83,44,53,43.63Zm-.19,3.29c.24-.25-.06-.81-.4-.69C52.54,46.42,52.44,46.89,52.76,46.92Zm-.9-3.46c.26-.12.17-.51.16-.73C51.68,42.61,51.56,43.31,51.86,43.46Zm0,1.51c.14,0,.19,0,.28,0,0-.49-.31-.68-.12-1.15-.65,0-1.09.56-1.68.64a3.39,3.39,0,0,1-.78,0c-.36.22-.82.14-1.09.41a10.23,10.23,0,0,0-2.34,1.88,18.29,18.29,0,0,0-2,1.8,1.11,1.11,0,0,0,.85-.15c.17-.29.27-.65.56-.81s.38-.06.53-.21,0-.22,0-.29a.57.57,0,0,0,.56-.3c-.05,0-.08-.07-.07-.19s.21,0,.38,0,.13-.32.3-.37.21.29.38.24c.32-.07.05-.45,0-.68.3.1.53-.22.75-.19s.11.17.27.25a.21.21,0,0,1,.12-.11c0-.26-.17-.36-.21-.55.24-.06.31-.2.53-.15,0,0,0,.09.08.15s.21,0,.22,0c.19.12.19.34.34.34s.21-.19.22-.44c-.05-.07-.15-.1-.18-.21.47-.11.86-.11,1,.29a.3.3,0,0,0,.31-.17c0-.22-.22-.18-.19-.44.12-.07.31,0,.44,0s.17-.41.43-.41c0,0,0,0,0,0s-.17.19-.19.34C51.8,44.58,51.73,44.87,51.86,45Zm-.25,1.19c.75.15.27-1.29-.19-.76C51.64,45.6,51.52,45.84,51.61,46.16Zm0,1.14c.37-.17,0-.88-.36-.82C51.41,46.72,51.41,47,51.56,47.3Zm-1-.75c.53.12.56-1,0-.9A3.46,3.46,0,0,0,50.52,46.55Zm-.08.71c.25-.22-.1-.66-.32-.37A.54.54,0,0,0,50.44,47.26Zm-.19-4a.15.15,0,0,1-.1,0c0,.23-.27.48-.15.68C50.27,43.77,50.22,43.51,50.25,43.21Zm-1.68,7.62a2.43,2.43,0,0,0,1.17.22,1.32,1.32,0,0,0-.52-.29,2.43,2.43,0,0,0-.87-.22c-1.1-.51-2.17-.21-3.46,0-.39.06-.81.26-1.2.29-.19,0-.34,0-.51,0a22.27,22.27,0,0,1-2.62-.19,6.5,6.5,0,0,1-.86-.25,8.07,8.07,0,0,0-1.27-.09,1.69,1.69,0,0,0-.78.27c.71.11,1.37.16,2.05.33a10,10,0,0,0,2.83.57C44.6,51.34,46.47,50.33,48.57,50.83Zm1-3.94c.56-.07.26-1.12-.2-1V46C49.57,46.3,49.4,46.52,49.52,46.89Zm-.68-2.66c.26-.11.55-.55.34-.8,0,0,0,0-.08,0C49.12,43.79,48.78,43.94,48.84,44.23Zm-.49,2.9c.46,0,.39-.43.22-.65C48.2,46.4,48.27,47,48.35,47.13Zm0-2.84c.19-.47-.32-.32-.39-.06A.23.23,0,0,0,48.4,44.29ZM48.25,48c.41,0,.24-.65-.15-.51A4.28,4.28,0,0,0,48.25,48Zm-.83-.85c-.19.2.13.57.3.32C47.69,47.28,47.64,47.11,47.42,47.13Zm-.07,1.51c.32-.27,0-.61,0-1-.08-.12-.27-.12-.44-.17,0,.15,0,.51.16.56s-.05-.19.1-.19C47.28,48,47.23,48.45,47.35,48.64Zm-.07-3.79c-.1-.13,0-.3-.12-.37-.15.09-.37.41-.15.58A.45.45,0,0,0,47.28,44.85Zm-1.15.7c.47.15.41-.39.22-.58-.1,0,0,.14,0,.24a.31.31,0,0,0-.22.19C46.08,45.48,46.15,45.48,46.13,45.55Zm-.2.83c-.11-.08,0-.15,0-.2s0-.22-.21-.19-.08.36-.22.43c.07,0,.05.2.19.18A.41.41,0,0,1,45.93,46.38Zm-1,.54c0,.21.37.28.34,0,0,0-.07-.1-.12-.13S45,46.84,45,46.92ZM41.72,32c.08-.13.22-.23.22-.39,0-.49-.83-.52-.78,0,0,.15.1.17.18.36C41.5,32,41.57,32,41.72,32Zm-2,1.16c.25,0,.3-.36.18-.56-.24.1-.34.18-.3.49A.12.12,0,0,1,39.67,33.15ZM37.24,50.32c.08,0,.24,0,.19-.12a3.72,3.72,0,0,0-2.14.44,1.86,1.86,0,0,0,1.27-.19A2.11,2.11,0,0,0,37.24,50.32Zm-3.61-23c0-.17.11-.25.1-.45-.07,0-.07-.09-.14-.11-.27.29-.63-.15-.71.29C33.18,27.06,33.29,27.29,33.63,27.29Zm-1.16,5.23c.07,0,.07-.08.14-.08a.4.4,0,0,0-.41-.34A.33.33,0,0,0,32.47,32.52ZM32.23,63.3a1.09,1.09,0,0,0,0-.34,2,2,0,0,0-1.43-.48c-.32,0-.64-.1-1-.15-1.29-.2-2.58-.29-3.73-.49a6.94,6.94,0,0,1-1-.31,1.26,1.26,0,0,1-.49-1.34c.07-.64.17-1.3.22-1.71,0-.22,0-.44,0-.7.07-.76.24-1.47.27-2.17a5.12,5.12,0,0,1,.11-.63c0-.27-.07-.51,0-.76a23.16,23.16,0,0,0,.22-2.78.6.6,0,0,0,.09-.22,5.69,5.69,0,0,1,.37-1.29A11.8,11.8,0,0,0,27,45.8c0-.61,0-1,0-1.45a9.87,9.87,0,0,0-.14-1.14c0-.14.07-.29,0-.41a2.21,2.21,0,0,0-.16-.35,2.41,2.41,0,0,0-.49-1.26.24.24,0,0,0-.13-.37c-.17.25,0,.62-.43.66a4.54,4.54,0,0,1,0-1.16c.15-1.32.4-2.47.57-3.8.07-.44.1-.88.17-1.3.1-.73.46-1.83-.1-2.33-.78-.29-.49.5-.64.9-.09.21-.24.16-.33.31a10,10,0,0,0,0,1.34c0,.32-.2.44-.27.61a2.38,2.38,0,0,1-.59,1.15,2.71,2.71,0,0,0-.51.12,4.51,4.51,0,0,1,0,.83c-.22-.12-.23-.3-.39-.34s-.39.58-.51,1a.54.54,0,0,1,.12.34c.16.17.39.22.55.41A1,1,0,0,1,23.62,41c-.17-.07-.28-.18-.45-.25s-.61-.1-.9-.22c-.13,0-.23-.19-.37-.24s-.42-.09-.59-.19c-.26.17-.6-.1-.71.19.74.49,1.78.34,2.39.83a4.79,4.79,0,0,1,1,1.21,7,7,0,0,1,1,2.54,2.38,2.38,0,0,0,0,.8c0,.34,0,.66,0,1A37.21,37.21,0,0,1,24.14,52c-.08.43-.08.9-.12,1.21s-.15.51-.18.78c-.09.59-.07,1.34-.11,2a1.31,1.31,0,0,0,.14.78c-.14.34,0,.75,0,1.21,0,.22-.1.44-.14.67a31.32,31.32,0,0,0-.08,3.72,4.54,4.54,0,0,0,1.58.1,7.15,7.15,0,0,1,1.59.15s.29-.1.24.12-.46,0-.39.19c-.54,0-1.7-.31-2.16.07.16.12.29,0,.45,0,1.06,0,1.91.27,3,.25a8,8,0,0,1,.82-.07c.73.07,1.42.24,2.12.29S31.93,63.52,32.23,63.3Zm-.15-31.2c0-.09,0-.14,0-.26-.17-.12-.73-.3-.71,0-.16-.22-.6.17-.78-.08.05-.11.23,0,.22-.19s-.38-.08-.5-.19c.05-.12.28,0,.34-.12s-.08-.08-.06-.18.25-.1.25-.26c-.2-.05-.53-.13-.63.12-.54,0-1,.8-1.46.32-.25-.06-.52.12-.83.09s-.42-.29-.63-.09c-.15-.05-.22-.17-.37-.22-.15.14-.3,0-.44-.06s-.49-.07-.71-.12-.1-.09-.19-.1a2.4,2.4,0,0,1-.37,0c-.19,0-.33-.24-.56-.31s-.75,0-1-.08c-.05,0-.06-.12-.1-.14s-.29,0-.34-.12a3,3,0,0,1,.19-1.54c.17.26-.05.51,0,.73.12.63,1.05.85,1.64.9a4,4,0,0,0,.19-1.36c.31.31.24,1,.87,1a1.65,1.65,0,0,0,.84.92c.19-.22.11-.6.12-.92A4.78,4.78,0,0,0,27,27.63c.17-.84-.52-1.49-.4-2.37-.21-.07-.34-.21-.48-.19a1.14,1.14,0,0,0-.46-.71,7.78,7.78,0,0,1-1.41-1.88,1.21,1.21,0,0,1-.05-.14c-.15-.39-.17-.81-.29-1.2,0-.14-.11-.39-.3-.46-.32.29-.09.78,0,1.13a3.18,3.18,0,0,1,0,.34c0,.43.22.8.22,1.28,0,.18-.17.25-.18.4-.06.38.3.8.3,1.11s-.14.27-.15.4.18.39,0,.53c-.34-.26-.18-.7-.37-1.05-.36,0-.34-.38-.59-.49-.16.11-.1.39-.09.56a3,3,0,0,0,.65,1.42c0,.09-.11.15-.12.27A2.42,2.42,0,0,1,23.7,28c-.22-.05-.15-.39-.27-.52h-.26A2.89,2.89,0,0,1,22.72,29c-.26.28-.8.06-1.11.36A1.77,1.77,0,0,0,23,31.2a1.86,1.86,0,0,1,.69.08c.78.1,1.45.15,2.29.29.05,0,.7.15.72.24s-.43.22-.5.22c-.66.07-1.13-.34-1.76-.38-.31,0-.53.09-.75.07a1.9,1.9,0,0,0-1.22.19c-.17-.1-.35,0-.66-.1s-.37-.65-.83-.55c-.14.26,0,.63-.1.89.17.2.59-.09.73,0h-.07s0,0,0,0,0,0,0,0,0,0,0,0a2.72,2.72,0,0,1,1,0c.85.12,1.68-.12,2.5-.08.35,0,.71.15,1.08.18s.95-.07,1.43-.07c1,0,1.64.28,2.53.26.08,0,.1.1.18.12a.84.84,0,0,1,.75.15c.34,0,.44.27.71.34,0-.36-.39-.42-.37-.83.12,0,.22,0,.25-.1s-.15,0-.13-.17C31.76,32,31.83,32.11,32.08,32.1Zm-1.25-3.47c.4-.23,1-.39.74-1-.46.16-1,.48-1.49.68,0,.21,0,.53.29.56S30.64,28.74,30.83,28.63Zm.34,1.77c.44,0,.42-1,.25-1.41-.29,0-.59.22-.83.34C30.55,29.72,30.83,30.4,31.17,30.4Zm-.24,34.81a.25.25,0,0,0-.38.12c0,.09.06.07.06.12C30.83,65.45,30.93,65.37,30.93,65.21Zm-1.09.84c.36,0,1.12.32,1.24-.12a12.26,12.26,0,0,0-1.93-.07C29.16,66.1,29.55,66,29.84,66.05Zm-.37-.46a.73.73,0,0,0-.82-.85,3.64,3.64,0,0,0-1-.19c-1.1-.07-1.9-.1-2.83-.2a6.29,6.29,0,0,1-2.46-.7c-.19.16-.19.39-.48.38-.67,0-.25-1.4.07-1.62.12,0,.1.33.22.26a1,1,0,0,1,.46-.68,2.44,2.44,0,0,1-.08-1.58c.15-1.61.4-3.34.64-5.26.1-.74.27-1.61.37-2.36.07-.39,0-.79.11-1.2s.18-.76.27-1.14a4.88,4.88,0,0,0,.06-.52c.06-.22.17-.39.23-.6.08-.37.13-.74.22-1.08a5.52,5.52,0,0,0,.18-.92c0-.66,0-1.3-.07-1.9a3.48,3.48,0,0,0-.06-.73,10.38,10.38,0,0,0-.5-1,4.71,4.71,0,0,0-1.12-2.08c-.16-.12-.72-.41-.81-.26a.09.09,0,0,0,0,.07,5.88,5.88,0,0,1,1.74,2.27,1,1,0,0,1,.07.26,12.4,12.4,0,0,1,.07,2.36,3.67,3.67,0,0,0-.14.37,2.61,2.61,0,0,1-.22.75c-.08.27-.15.54-.22.79.36,0,.27-.45.51-.57,0,.12.15.15.19.27-.14.59-.26,1.12-.37,1.76a6.83,6.83,0,0,1-.29,1,3.41,3.41,0,0,0-.41,1c0,.2.1.36.1.51a4.65,4.65,0,0,1-.34,1.47,11.16,11.16,0,0,0-.59,1.21c-.07.29,0,.54-.12.78s-.39.51-.54.83a7.94,7.94,0,0,0-.21,2c0,.1-.08.22-.1.35s.05.39,0,.62-.11.57-.16.88,0,.52-.07.8a14.53,14.53,0,0,0-.22,2.71c.07.49.8,1,0,1.27-.56-.63,0-2.15-.27-3a3.94,3.94,0,0,0-.32,1.14c-.05.37,0,.81-.27,1.05-.12-.32,0-.56.08-.78s.05-.8.11-1.2.06-.8.08-1.17c.05-.55.37-1,.19-1.46-.36.22-.29.73-.34,1.08-.14,1-.29,1.88-.34,2.63,0,.43-.43,1.14-.38,1.55s.34.5.5.76c.81-.39,1.74.19,2.78,0,0-.21-.26-.12-.26-.31a4.37,4.37,0,0,1,1.53-.07c.63.07,1.33,0,2,.07.24,0,.39.12.56.12a2.87,2.87,0,0,0,.41,0c.05,0,.12,0,.18,0,.28,0,.56,0,.84,0A9,9,0,0,0,29.47,65.59Zm-.41-34.73c0-.24-.35-.56-.51-.46s-.8.27-.8.53A2.07,2.07,0,0,0,29.06,30.86ZM28.31,30c.11-.63-.49-1-.69-1.58,0,.73-.1,1.28-.12,1.8C27.81,30.28,28.08,30.08,28.31,30ZM25.7,19.49c.05-.07.17-.07.19-.19s-.37-.2-.53-.12C25.33,19.42,25.55,19.44,25.7,19.49Zm-.41-1c.07-.09.28,0,.34-.12-.06-.56-.54-.7-.83-1h-.07c-.22.46.34.63.45,1a1.07,1.07,0,0,1-.33.07c-.32-.21-.56-.66-.9-.75,0,.22,0,.37,0,.59s.28.36.34.55,0,.17,0,.25.34.36.51.44c.14-.1.09-.34.12-.47.22,0,.39-.05.44-.22S25.26,18.64,25.29,18.51Zm-.71-2.11c0-.17.05-.17.09-.25-.22,0-.48-.6-.63-.15C24.23,16.13,24.29,16.37,24.58,16.4Zm-.71,2.89c-.59.17.63,1.12.86.45C24.57,19.69,24.14,19.2,23.87,19.29Zm.12-1.8s0,0,0-.07-.15-.05-.15,0,0,0,0,.07S24,17.54,24,17.49Zm-.51-5.23c-.05,0-.05-.12-.12-.13A2,2,0,0,0,23,13.21c-.28.36-.9,1.22-.27,1.5.21-.16.15-.51.09-.78a1.49,1.49,0,0,0,.35-.6C23.5,13.2,23.46,12.69,23.48,12.26Zm-.53,5c.05,0,.05-.1.11-.12a1,1,0,0,0-1.57-.1c.14.15.21.34.34.46a2.61,2.61,0,0,0,1,0c-.32-.19-.75-.26-1.09-.43A.83.83,0,0,1,22.5,17c.05.13.05.34.22.35s-.12-.13,0-.2S22.82,17.3,23,17.3Zm-.86,2.53c.1,0,.35.08.47,0-.15-.15-.71-.44-.78,0,0,.12.09.47.34.49A.56.56,0,0,0,22.09,19.83Zm.07,33.22c0-.26-.41-.36-.33-.65a1.14,1.14,0,0,0-1.3,0A3.24,3.24,0,0,1,21,54.15a5.35,5.35,0,0,0-.22.9c0,.22.05.46,0,.7s-.2.62-.1,1c.22,0,.22-.34.25-.48.16-.71.28-1.34.41-2.15C21.53,54,22.16,53.3,22.16,53.05ZM21.49,55c.39.07.39-.51.07-.51C21.44,54.63,21.49,54.8,21.49,55ZM21,18.1a.68.68,0,0,0,.61.81c-.14-.27-.27-.52-.41-.81Zm.71,2.29a2.69,2.69,0,0,0-.32-1.09h-.16c0,.05,0,.05,0,.11C21.32,19.81,21.39,20.37,21.75,20.39ZM21,14.94c.17-.4-.07-.85-.31-1.32-.17-.32-.27-.68-.4-.9s-.67-.8-.85-.19-.29,1.58.25,1.77a1.53,1.53,0,0,1,.34-1,.66.66,0,0,1,.31.89C20.58,14.4,20.66,14.79,21,14.94Zm.15,36.4c-.15-.21-.54,0-.78-.06s-.08-.23-.19-.37a.76.76,0,0,0-1.08-.07c.15.27.41.31.63.51s.3.68.71.77C20.66,51.86,21,51.67,21.12,51.34Zm-.75-20.11c.31-.14.07-.71-.06-1h-.09C20.05,30.54,20.29,31,20.37,31.23Zm-.44,27.42c.24-1.7.72-3.19.41-4.91-.05-.37-.29-.64-.24-1-.25-.68-.91-.47-1.22,0a17.44,17.44,0,0,0-.9,3.87,38.8,38.8,0,0,1-1,6.6,10.86,10.86,0,0,0,2.23-.15c.24-.31.17-.7.23-1C19.68,60.68,19.78,59.8,19.93,58.65Zm.51-42.37c-.07-.22-.29-.44-.47-.44a1.51,1.51,0,0,0,0,1.21C20.12,16.81,20.17,16.44,20.44,16.28ZM18,65c.68-.07,1.34,0,1.22-.95-.53-.24-1.24.07-2,0-.17.18-.44.15-.61.28s-.13.24-.22.38-.34.22-.3.42C16.69,65.11,17.59,64.79,18,65Zm.93-14.91c.05-.11,0-.12,0-.24a.74.74,0,0,0-.71,0C18.37,49.91,18.51,50.1,18.88,50.05Zm-.49,3.25a10.26,10.26,0,0,0,.24-1.15,3.8,3.8,0,0,0-.53,1.17c-.15.44-.24.93-.37,1.39s-.32.85-.41,1.29-.14,1-.19,1.48c-.06.74-.13,1.44-.23,2.24,0,.15-.09.3-.14.47s0,.41-.2.44a26,26,0,0,1,.52-4.46c0-.37.05-.76.12-1.19a8.47,8.47,0,0,0,.38-1.68c0-.13-.14-.25-.16-.4a6.47,6.47,0,0,1,.07-.72c0-.22.09-.51-.1-.62-.24.15-.15.47-.19.74a21.11,21.11,0,0,0-.46,3.19c-.13.12-.1.29-.13.51s-.1.19-.12.29a11.81,11.81,0,0,0-.19,1.31c0,.34,0,.69,0,1,0,.09-.09.16-.09.22s0,.19,0,.28-.1.27-.12.4c0,.43-.1.94-.15,1.36,0,.22,0,.46,0,.66s-.34.66-.22,1a5.37,5.37,0,0,1-.93,1.76,6,6,0,0,1-4,1.4,16.1,16.1,0,0,0-1.85.2c-1.34.08-2.61.08-3.67.22a2.35,2.35,0,0,0-1.18,0c-.34,0-.72-.1-1,.11,0,0-.29,0-.13,0,1,0,2.12.22,3.2.17.77,0,1.6,0,2.09-.07a7.52,7.52,0,0,1,1.22-.12,8.28,8.28,0,0,0,1.12,0c.15,0,.34-.09.46-.09a11.44,11.44,0,0,0,1.31,0A5.28,5.28,0,0,0,15.59,65a5.48,5.48,0,0,0,.93-1.6,4.68,4.68,0,0,0,.27-.85,18.74,18.74,0,0,0,.51-3.85,11.81,11.81,0,0,0,.34-2.22c.09-.78.33-1.68.43-2.29A7.45,7.45,0,0,1,18.39,53.3Z" transform="translate(-0.93 -2.01)"/><path class="cls-1" d="M73.51,61.87c.12,1.17.75,2.29.34,3.24-.2,0-.07-.25-.27-.27a36.71,36.71,0,0,0-.47-4.43,3.75,3.75,0,0,1-.28-1.61,7.33,7.33,0,0,0-.9-3.61c-.13-.19-.42-.34-.33-.63,0-.09-.14-.09-.17-.19s.11-.25.18-.37c0-.39-.27-.9-.3-1.26.17.11.29.29.47.39s.1-.15.21-.18a1.61,1.61,0,0,1,.59,1.27c0,.36.19.71.22,1.05a4,4,0,0,1,0,.48c0,.32.13.66.15,1,0,.12.08.28.1.39a29.08,29.08,0,0,1,.44,3.26C73.48,61,73.48,61.43,73.51,61.87Z" transform="translate(-0.93 -2.01)"/><path class="cls-1" d="M70.68,63.53c-.05.19-.51.19-.61,0S70.54,63.43,70.68,63.53Z" transform="translate(-0.93 -2.01)"/><path class="cls-1" d="M64.81,15.62c0,.17-.27.26-.41.34a4.2,4.2,0,0,0-.18,1,1.72,1.72,0,0,1-1,1.33c.1.23-.12.37-.15.56-.05.45.32.91.25,1.3a1.63,1.63,0,0,1-.47-1.42c-.22,0-.19.68-.09.86-.27.43.41.53.19.94-.17,0-.15-.14-.29-.14a4.48,4.48,0,0,1-.24-1.77,1.67,1.67,0,0,0-.15,1c.05.53.39.9.34,1.27-.39.09-.29-.23-.32-.37a5.59,5.59,0,0,1-.27-.9c0-.51.18-.91.06-1.24-.44.21-.18.55-.28.94a.44.44,0,0,1,0,.49c-.19,0-.17-.15-.28-.22.05-.44.12-.78.19-1.24-.59,0-.44.95-.41,1.42-.44-.15-.2-1-.13-1.39-.48-.23-.55-.47-.65-1.05,0-.27-.13-.56-.15-.78,0-.42.05-.78-.14-1a.92.92,0,0,0-1.2-.05c0,.25-.1.47-.12.73a10.76,10.76,0,0,1-1.34,1.2,5.46,5.46,0,0,1-.78,1.07c-.2.27-.34.6-.53.88s-.32.29-.44.48a5.39,5.39,0,0,0-.34.68c-.15.34-.56.52-.69.9a4.92,4.92,0,0,1,1.12.42,2.51,2.51,0,0,1,.35,1.71,6.35,6.35,0,0,1-.54.61,1.74,1.74,0,0,1-1.31-.05,1.57,1.57,0,0,1-1.2.09,1.27,1.27,0,0,1-1.42,0,2,2,0,0,1-.94.11c-.12,0-.2-.14-.32-.14s-.29.14-.42.15a1.89,1.89,0,0,1-.75,0,1.89,1.89,0,0,0-.63-.22,1.41,1.41,0,0,0-.52.15c-.23.05-.36-.1-.63-.15s-.29.06-.49.15A1.2,1.2,0,0,1,45.93,24c-.53.11-1,.34-1.41-.07A1.45,1.45,0,0,1,43,23.83a1.52,1.52,0,0,1-1.46.05,3,3,0,0,1-2,.22,1.78,1.78,0,0,1-.89-2.51c.21-.28.61-.35,1-.52,0-.27-.23-.31-.38-.49-.37-.45-.66-1.11-1-1.7s-.8-1.09-1.09-1.58a2.66,2.66,0,0,0-.32-.56c-.32-.35-.8-.52-1-.93-.08-.22.06-.43,0-.61a1.12,1.12,0,0,0-.64-.71c-.56-.11-.71.18-.81.55a4.74,4.74,0,0,1-.28,2.41c-.08.41-.23.68-.62.72A5.08,5.08,0,0,1,33,20l-.27-.07c.07-.26.41-.55.53-.9s.17-.65-.12-.8c-.22.09-.1.26-.14.42-.05.53-.41,1-.49,1.53-.12.15-.36.53-.56.24.17-.32.44-.54.63-.87,0-.11-.12-.1,0-.18a1,1,0,0,0,.09-1c-.19.66-.22,1.65-.83,1.8.22-.51.76-.95.49-1.68-.29.3-.1,1.08-.61,1.19-.07-.36.49-.67.18-1.12-.13.39-.25.93-.69.93,0-.27.12-.32.29-.37.17-.39.29-.94-.22-1.06-.51-.56-.31-1.61-.78-2.24-.12-.15-.33-.22-.34-.45.37-.28.76.28,1.08.22s.16-.73.31-1.09c.2,0,.17.14.32.12.54-.12.68-1.09.53-1.44-.19.27,0,.81-.34,1.1-.12,0-.09-.12-.16-.15s-.2.22-.37.12a.35.35,0,0,1,0-.21c0-.12.18-.08.27-.13a1.15,1.15,0,0,0,.1-.72c-.07-.16-.29-.22-.41-.39-.42-.59-.42-1.93-1.12-2.25.65-.26.94.56,1.56.46a6.71,6.71,0,0,1,.8-1.5c.48,0,1-.18,1.38,0s.56.88.9,1.34c-.07.07,0,.1,0,.22.2.22.11.75.44.87.22-.14.06-.43.05-.68a3.32,3.32,0,0,0,0-1c-.1-.2-.37-.32-.54-.53a2.36,2.36,0,0,1-.34-.93,10.51,10.51,0,0,0-2.17-2.68,1.5,1.5,0,0,1,0-.37,1,1,0,0,1,.87-.26c1.13.14,1.56,1.19,1.68,2.36a3.08,3.08,0,0,0,0,.61.88.88,0,0,0,.6.48c.22-.11.22-.39.32-.6-.14-.42-.51-.57-.55-1,0-.25.09-.47.07-.75a3,3,0,0,0-.81-1.79c-.21-.19-.8-.38-.71-.8s.61-.22.86-.12a2.08,2.08,0,0,1,1.15,1.61c0,.34-.11.73,0,1.1s.51.94.61.38c-.45-.56.09-1.28,0-1.92a2.55,2.55,0,0,0-.19-.78c-.18-.48-.83-.78-.61-1.44a.92.92,0,0,1,.83.24A1.55,1.55,0,0,1,37,4c.12.81-.32,1.37-.12,1.88.56.12.46-.37.49-.59a5,5,0,0,0,.26-1.18c0-.84-.8-1.11-.72-1.84.65-.23,1.11.44,1.21.91.18.8-.38,1.46.07,1.88.34-.1.45-.45.52-.67.21-.73-.37-1.6.07-2.31a.78.78,0,0,1,.71.73c.1.61-.4,1.05-.15,1.61.25.09.37-.22.53-.34a3,3,0,0,0,.18-1.2c0-.43-.25-.78.27-.84h0c.88.46-.1,1.36.1,2.14A.37.37,0,0,0,40.85,4c.43-.46.29-1.57,1.12-1.54a.58.58,0,0,1,.09.68c-.34.13-.73.64-.43,1a1.54,1.54,0,0,1,.75.12,4,4,0,0,0,0,.6A15.17,15.17,0,0,0,40.11,5a4.37,4.37,0,0,0-2,.9A9.57,9.57,0,0,0,37,7.39a6.9,6.9,0,0,0-.89,4.21,8.67,8.67,0,0,1,.13,1.27c.22.68.44,1.33.68,2a14.69,14.69,0,0,0,.59,1.4c.22.44.44.89.68,1.3s.68.92,1,1.39a7.94,7.94,0,0,0,1.06,1.33.43.43,0,0,0,.3-.34c.12-.85-.58-1.89-.75-2.55-.44-.59-.61-1.47-1.17-2a1.32,1.32,0,0,1-1,0,1.17,1.17,0,0,1-.34-.4c-.1-.29.1-.65,0-.9s-.36-.36-.48-.68a1.36,1.36,0,0,1,.22-.87c0-.2-.17-.27-.22-.4-.17-.55.29-.83.51-1.17-.12-.72.46-1.17,1-1.4.22-.54.47-1,1-1,.15,0,.31.12.44.08s.27-.32.34-.46a3.1,3.1,0,0,1,.7-.13c.17,0,.3.1.49.1s.49-.22.75-.22a1.57,1.57,0,0,1,1,.56c.44-.14,1.12-.1,1.3.41a1.12,1.12,0,0,1,1.29.73,3.36,3.36,0,0,0,.87-1.77c-.38-.27-.68.32-1,.26a10.83,10.83,0,0,1,0-1.89,9.2,9.2,0,0,1,1.12.38c0-.55-.46-.85-.61-1.31a8.48,8.48,0,0,1,2.62.15c-.11.36-.51.65-.63,1.09.34,0,.66-.32,1.12-.34a3.44,3.44,0,0,1-.07,1c0,.32.07.63-.12.87-.46.05-.76-.56-1.12-.22a2,2,0,0,0,.63,1.27c0,.34.08.56.27.56s.2-.19.32-.29a1.51,1.51,0,0,1,.94-.24c.17-.07.18-.29.33-.41a1.32,1.32,0,0,1,1.16-.15,1.08,1.08,0,0,1,1.12-.37c.18.05.32.24.49.29a1.06,1.06,0,0,1,1.58.27c.25,0,.39.15.74.08.31.19.65.34.75.66,0,.06,0,.23,0,.24.14.17.51.19.63.26a.94.94,0,0,1,.47.52c0,.26-.13.65,0,.87s.53.44.43,1c0,.15-.21.27-.22.45s.13.22.2.38a1,1,0,0,1-.41,1.12c.11.78-.2,1.25-.84,1.25-.16,0-.29-.08-.43,0-.34,0-.41.54-.41.9-.11.08-.18.24-.35.27A11.26,11.26,0,0,0,53.88,20a.93.93,0,0,0,.22.79c.5-.25.66-.86,1.06-1.24.35-.88,1.08-1.39,1.4-2.32a6.66,6.66,0,0,0,1-1.88,7.4,7.4,0,0,0,.85-4c0-.37-.12-.73-.15-1.09s0-.47,0-.68-.2-.64-.3-1a5.88,5.88,0,0,0-1.51-2.45,9.16,9.16,0,0,0-1.55-.67c-.28-.12-.56-.21-.84-.31a17.14,17.14,0,0,0-2-.41c0-.15-.07-.32,0-.45.31-.14.59,0,.81-.26.09-.51-.33-.8-.35-1.2s.35-.58.59-.31-.18,2.14.94,1.85c.35-.31-.19-.68-.24-1.1s.1-.58.27-.94c.34-.1.37.07.53.28a3.12,3.12,0,0,0-.06,1.08c.07.36.29,1,.53,1s.29-.29.37-.43c-.18-.64-.62-1.46-.15-2.1a.61.61,0,0,1,.68.27A3.23,3.23,0,0,0,56,5c.14.11.29.26.53.17,0-.39-.16-.93-.09-1.3a3.8,3.8,0,0,1,.24-.8,1.36,1.36,0,0,1,.85-.34c.32.07.2.53.08.73s-.3.31-.42.49a1.73,1.73,0,0,0-.33.78c0,.26.29.55.36.75s-.07,1,.56,1c.24-.63-.22-1.17-.07-1.92a2.72,2.72,0,0,1,.41-.73,1.88,1.88,0,0,1,.68-.4c.41,0,.51.28.37.57s-.49.63-.71,1.05c0,0,0,.14-.07.19s-.08.15-.08.19c-.14.44.08.91,0,1.27s-.27.51-.22.78c.12.48.59,0,.69-.15a7.44,7.44,0,0,1,.34-2.17c.17,0,.19-.34.34-.5a.55.55,0,0,0,.22-.1c.07,0,.1-.13.15-.18s.16,0,.23-.05.08-.14.11-.16.28-.08.41-.13c.41-.17.63-.21.82.18-.58.85-1.84,1.43-1.87,2.51-.22.33-.09.72-.22,1.09s-.48.56-.59.9a3.53,3.53,0,0,0,.13.73c.68.05.71-.71.83-1.22a2.71,2.71,0,0,1,1.61-1.87c.58-.08,1.36-.54,1.67,0-.11.24-.39.15-.63.26-.49.18-.61.69-1.05,1.08-.27.22-.68.37-.82.58-.32.49-.25,1.2-.56,1.73-.17.27-.61.42-.68.78a5.55,5.55,0,0,0,0,1.46c.34-.07.32-.51.56-.68a1.79,1.79,0,0,1,.37-.88c.12-.24.19-.48.34-.58A2.63,2.63,0,0,1,61,9.84a2.6,2.6,0,0,1,.56.06,2,2,0,0,1,.87.34c.27.31.25.92.63,1.12.39,0,.52-.32.89-.37.19.37-.25.71-.4,1.17s0,1.34-.61,1.36c-.16.52.49.57.27,1-.41-.19-.36-.73-.68-.94-.24.39.32.65.3.94-.5.06-.4-.63-.62-1-.33.17,0,.66.1.91s.34.36.3.53c-.2.22-.4,0-.42-.27h-.37a3.68,3.68,0,0,1-.22-1.31c-.65.15.08.54-.11,1-.28-.05-.3-.68-.27-.86s-.39-.33-.51-.6.17-.79-.08-1.12c-.36.11-.46.46-.68.68a1.78,1.78,0,0,1-.32.94.82.82,0,0,0-.6.93c.43-.09.56-.39.92-.44.54-.07,1.12.46,1.43.78s.42.42.56.59.15.37.37.39.39-.24.59-.18.33.47.6.5S64.25,15.4,64.81,15.62Zm-1.07,1.72c0-.48.24-.9.25-1.31-.2.08-.4.41-.67.49-.11.12-.19.36-.41.26.05-.31.22-.89-.1-1-.36.08-.39,1-.87.61a1.4,1.4,0,0,0-.63-1.21c0,.33.14.72-.05,1.06a5.58,5.58,0,0,0-.47-.38c-.27.38.22.78.22,1.24,0,.2-.17.43-.12.65.15.71,1.07.13,1.68.18a1.34,1.34,0,0,0,.27.07A1.08,1.08,0,0,0,63.74,17.34Zm-.39-5.15c.07-.27.24-.5.15-.71a1.14,1.14,0,0,0-.66.6c-.22-.41-.13-1-.49-1.34-.2.25-.2.71-.44.93-.24-.2-.27-.63-.65-.71a9.05,9.05,0,0,0-.29,1.3c0,.34.06.75.41.83a2,2,0,0,0,.49,0c.31,0,.56.14.78.08C63.18,13.06,63.2,12.67,63.35,12.19ZM62,14.33a2.25,2.25,0,0,0-.14-1.05A1,1,0,0,0,62,14.33Zm-1-4s-.07,0-.12,0c-.12.37-.79.58-.54,1A1.79,1.79,0,0,0,61,10.36ZM59.7,14.91c0-.76-.78-.29-.83.17,0,0,.07,0,.05.05A2,2,0,0,0,59.7,14.91Zm-3.07-.73c.83.27,1.36-1,.53-1.12-.31,0-.49.14-.73.34A.74.74,0,0,0,56.63,14.18ZM57,12.81c.56,0,.78-1.26,0-1.14a.77.77,0,0,0-.56.34A.59.59,0,0,0,57,12.81Zm-.93-1.26A.76.76,0,0,0,57,10.4a.73.73,0,0,0-1.22.71C55.9,11.28,55.92,11.47,56.09,11.55Zm.34,3.89c1.08.22.68-1.75-.21-.84C56.19,14.93,56.12,15.38,56.43,15.44Zm-.58-.87a3.15,3.15,0,0,0-1-4,3.35,3.35,0,0,0-2-.52,12.62,12.62,0,0,0-3.27,1c-.17.31-.5.63-.56,1,.39-.15.88-.18,1.3-.34.26-.08.53-.27.72-.33a7.35,7.35,0,0,1,.84-.19,5.06,5.06,0,0,1,.53-.22,2.38,2.38,0,0,1,1.71.37,4,4,0,0,1,.72.44,3.55,3.55,0,0,1,.37,2.68A1.46,1.46,0,0,0,55.85,14.57Zm-.69-4c1,.19,1.05-1,.5-1.32a.73.73,0,0,0-1,.33C54.51,10,54.88,10.36,55.16,10.55Zm.69,4.39c-.19-.18-.66-.4-.93-.22.1.6-.09.87.18,1.22C55.6,15.86,55.63,15.3,55.85,14.94Zm-.69,1.68c.06-.07.16-.1.22-.18,0-.28-.19-.26-.45-.29C54.73,16.37,55,16.55,55.16,16.62Zm-.41.34c.08-.1.25-.08.22-.25a.3.3,0,0,0-.22-.12c-.61.36-.68,1.29-1.39,1.47-.94.28-1.33-.59-1.75-1.17-.37-.05-.76,0-1-.08a.78.78,0,0,0-.38.42,1.73,1.73,0,0,1-1.78.19c-.27-.15-.4-.63-.79-.68-.07,0-.19.07-.29.07s-.22-.12-.34-.1-.22.29-.38.44a1.86,1.86,0,0,1-2,.27c-.17-.08-.34-.32-.56-.37-.39-.09-.6.05-1.09.15-.27.34-.59.8-1.07.85s-.64-.41-1-.38c-.2-.18-.19-.54-.48-.56s0,.73.11,1.09a2.22,2.22,0,0,0,1.37.46c.07,0,.2,0,.27-.09.65.12.83-.64,1.19-.81.17.34.56.2.61-.15.41,0,.66.3,1,.37A2.29,2.29,0,0,0,47,17.3a.51.51,0,0,0,.29.19c.1,0,.13-.32.27-.26a2.06,2.06,0,0,0,1.86.82,2.3,2.3,0,0,0,1.28-.7,4.44,4.44,0,0,0,.37.38c.2,0,.15-.22.34-.21.22.29.27.58.51.87s.63.51,1.15.46c.09,0,.12-.11.21-.12.57.08.72-.39.93-.72.08-.11.22-.18.29-.3S54.63,17.15,54.75,17Zm0-4.36c.07-.17-.09-.35,0-.59a6,6,0,0,0-1.09-.78c-.1,0-.12,0-.19,0a1.85,1.85,0,0,0-1.1-.08c-.56.12-1.15.45-1.8.64-.32.1-.66.2-1,.31s-.72.06-.75.4a18.52,18.52,0,0,1,1.87,0c.39.05.78.29,1.15.22.12,0,.22-.12.34-.15C53,12.26,54,11.92,54.75,12.6ZM53.61,17c.51-.13,1.31-.51,1.09-1.05-.09-.2-.73-.87-1-.68A8.08,8.08,0,0,0,53.61,17Zm.76,6.74a.53.53,0,0,1,.14-.12c-.24-.7-.46-1.41-1.12-1.66h-.07c-.06.25.14.57.29.91S53.93,23.71,54.37,23.7ZM53.92,9.9a.67.67,0,0,0,.34-1.23C53.14,8.34,53,9.89,53.92,9.9Zm-.22,9.28a2.27,2.27,0,0,1-1.56-.27,6.92,6.92,0,0,1-.8-1.05c-.27.19-.53,0-.75-.13a5.49,5.49,0,0,1-1.37.52,3.62,3.62,0,0,1-1.72-.61c0-.07-.1.14-.23.09s-.26-.19-.38-.12a2.81,2.81,0,0,1-1.69.62c-.34-.05-.75-.37-1-.37s-.2.2-.37.31-.44,0-.66-.11a2,2,0,0,1-2.4.85,1.83,1.83,0,0,0,.23.87,6.39,6.39,0,0,1,2.05.08c.34-.25.71.05.93.07s.61-.27.82,0a2.16,2.16,0,0,1,.83,0,8.07,8.07,0,0,0,2-.23,1.12,1.12,0,0,0,1.07,0,5.64,5.64,0,0,0,2.14,0c.08,0,.12.13.22.15s.46-.1.78-.12c.1,0,.13.12.24.15C52.88,19.74,53.61,20.19,53.7,19.18Zm0,2.06c.14-1-.59-1.16-1.36-1-.11-.06-.13-.19-.28-.19s-.38.32-.63.3-.29-.2-.46-.22a3.94,3.94,0,0,1-.71,0c-.12,0-.24-.1-.32-.1s-.22.15-.34.17-.38-.14-.56-.14a3.81,3.81,0,0,1-.78.1c-.21,0-.31-.1-.46-.07s-.19.11-.29.11S47.2,20,47.05,20a6.81,6.81,0,0,0-.79.24c-.35-.14-.54.13-.93.06-.1,0-.07-.18-.18-.18a1,1,0,0,1-.63.12.6.6,0,0,0-.75,0,1.76,1.76,0,0,0-1,0c-.37-.29-.95.08-1.3-.14a.82.82,0,0,1-.56.07c-.12.13-.19.32-.41.37a2,2,0,0,0-.05.58c.32-.07.56.07.9,0s.42.27.64.26.41-.17.63-.22c.44-.09.58.13.87.15s.95-.12,1.44-.12c.27,0,.51.1.75.12s.49-.15.78-.15.62.18,1,.18a5.19,5.19,0,0,1,.9-.08c.21,0,.36.12.56.12a8.55,8.55,0,0,1,1.27-.12c.34.3.7,0,1.09,0s.59.18.9.17.39-.17.63-.17A2.26,2.26,0,0,1,53.66,21.24ZM51.93,8.94a.59.59,0,1,0,1.09,0A.6.6,0,0,0,51.93,8.94Zm.58,8.14c.91.1,1-1.63.19-1.76-.4-.07-.53.27-.9.37-.09-.24.17-.53.18-.75a1.77,1.77,0,0,0-.37-1.32c-.46-.14-.83.54-.9.9s.2.81-.12,1.05c-.32-.61-1.44-.75-1.56.09a1.23,1.23,0,0,0,.48,1.17c.22-.22.25-.65.64-.7C50.85,16.37,52.76,15.77,52.51,17.08Zm-1,6.47a2.19,2.19,0,0,0,1.5.18c0-.46-.46-.93-.7-1.36a.81.81,0,0,0-.83-.61c-.66.38-1.49-.3-2.09-.06.07.69.77,1,.72,1.64a1.57,1.57,0,0,0,1.37.43C51.51,23.7,51.46,23.56,51.52,23.55Zm-.74-13.34A.7.7,0,0,0,51.39,9C50.52,8.46,50.15,10.06,50.78,10.21Zm-.15,6.41c.35.07,1,.26,1.13-.13a2,2,0,0,0-1.17-.12A.35.35,0,0,0,50.63,16.62Zm-.82-5.85c.53-.14.51-1.22-.1-1.15S49.05,11,49.81,10.77Zm-.63-.07a1.61,1.61,0,0,0-.49,0,6.27,6.27,0,0,0-.59,1.65,4.37,4.37,0,0,0-.34,2,2,2,0,0,0,.37.05c.07-.8.41-1.41.46-2.16A4.21,4.21,0,0,0,49.18,10.7Zm-.42-3.12a.78.78,0,0,0,.08-.93A.78.78,0,0,0,48.1,7a.74.74,0,0,0-.07.36A.81.81,0,0,0,48.76,7.58Zm-.07,9.09c.07-.54.2-.91,0-1.25-.4,0-.48.27-.82.3a1,1,0,0,0,0,.75C48.15,16.35,48.39,16.64,48.69,16.67Zm-.22-6.12c-.47-.12-.61.36-.78.66.12.09.12.29.25.36A2.32,2.32,0,0,0,48.47,10.55Zm-.22-.65a.55.55,0,0,0,.07-.49c-.24-.22-.6,0-.75-.32-.07-.14.07-.36-.12-.49-.52-.07-.3.47-.47.68s-.53,0-.72.06-.1.36,0,.46C46.91,9.94,47.42,9.75,48.25,9.9Zm-.49-3.46c.07-.25.39-.34.37-.59,0-.44-.93-.34-1.34-.29,0,.34.19.49.29.78A2.64,2.64,0,0,0,47.76,6.44Zm.12,3.89c.18,0,.22-.21.18-.31a.43.43,0,0,0-.15,0C47.81,10.11,47.88,10.16,47.88,10.33ZM48,9.07c.1-.29-.29-.34-.27-.1A.19.19,0,0,0,48,9.07Zm-1.09-.78c.33.31,1.11.09.72-.49a.62.62,0,0,0-.56,0A2.08,2.08,0,0,0,46.94,8.29Zm.7,8.08a.59.59,0,0,0-.22-.65c.25-.08.44-.62.61-1a2.2,2.2,0,0,0-1.12-.15.48.48,0,0,0-.34.14c.12.4.46.59.56,1a5.41,5.41,0,0,0-.19.53A.42.42,0,0,0,47.64,16.37Zm-.22-5.75a.57.57,0,0,0,.19-.63c-.23,0-.28,0-.48,0a.72.72,0,0,0,0,.58A.29.29,0,0,1,47.42,10.62Zm.22.12a3.45,3.45,0,0,1-.56,0,.88.88,0,0,0,.24.37C47.49,11,47.64,11,47.64,10.74Zm-.1,1.88c.15-.1.05-.24.07-.49a3.73,3.73,0,0,0-.72-.09.34.34,0,0,0,0,.49C47.13,12.43,47.35,12.57,47.54,12.62Zm0,1.68a.55.55,0,0,0-.22-.68c-.61-.14-.73.41-.46.75A1.78,1.78,0,0,0,47.54,14.3Zm-.22-6.69c.54,0,.62-1.05,0-.9C46.84,6.82,46.89,7.58,47.32,7.61Zm.13,4.21c.26-.42-.61-.59-.54-.07C47.06,11.82,47.3,11.77,47.45,11.82Zm-.54,1.51c.36.15.64,0,.66-.37-.25-.07-.54-.24-.78,0A.64.64,0,0,0,46.91,13.33ZM47,23.7c.22-.29-.07-.6-.22-.83-.53-.85-.69-1.63-1.87-1.11-.37-.23-1-.39-1.22,0,.33.8.55,2,1.75,2a4.12,4.12,0,0,1,.53-.12A4.77,4.77,0,0,0,47,23.7Zm-.12-13.3a.58.58,0,0,0,0-.41c-.14,0-.19,0-.32,0C46.47,10.24,46.6,10.43,46.89,10.4Zm0-1.58c-.2-.15-.56.13-.31.27S46.91,9,46.91,8.82Zm-.09,7.58a3,3,0,0,1,.07-.46,2.19,2.19,0,0,0-.76-.5A1.88,1.88,0,0,0,46,16.66C46.32,16.59,46.52,16.45,46.82,16.4Zm-.11-4.88c0-.21.23-.24.3-.41-.2-.24-.39-.66-.81-.59A3.77,3.77,0,0,0,46.71,11.52Zm-.75-4c.53.27.92-.2.58-.68S45.72,7,46,7.51Zm.64,6.91c0-1.39,0-2.95-.71-3.87-.17,0-.34,0-.41.15.06.66.45,1.12.41,1.68.36.58.14,1.49.22,2C46.3,14.49,46.35,14.4,46.6,14.42Zm-3-2a12.26,12.26,0,0,1,2.12,0c-.13-.33-.57-.36-.88-.53a7.55,7.55,0,0,0-.75-.39c-.25-.12-.52-.2-.78-.32s-.2-.17-.34-.21a3.55,3.55,0,0,0-1.18-.17c-.7,0-2.21.58-2,1.38a2.5,2.5,0,0,1,1.9-.14,4,4,0,0,0,.41.14,8,8,0,0,0,.81.37A3.42,3.42,0,0,0,43.65,12.43Zm.83-1a1.87,1.87,0,0,0,1,.38,1.78,1.78,0,0,0-.22-.75,2.21,2.21,0,0,0-1.12-.64A4,4,0,0,0,40.6,10a5.94,5.94,0,0,1-1.05.49c-.24.21-.41.48-.67.68A3.84,3.84,0,0,0,39,15a1,1,0,0,0,.65-.27,4.94,4.94,0,0,1-.34-1.57A4.11,4.11,0,0,1,39.44,12a2.83,2.83,0,0,1,1.72-1.27,4.78,4.78,0,0,1,2.9.44A1.38,1.38,0,0,0,44.48,11.41Zm.72,5.37a2.61,2.61,0,0,0,.4-1.36c-.32-.26-.57-.65-1.12-.51-.18.13-.35.42-.49.51,0-.34,0-.7-.07-1-.22-.36-.51-1.05-.93-.8s-.37,1-.3,1.32.32.5.08.66a.77.77,0,0,0-1.12-.06c-.37.42,0,1.2.36,1.42.18-.22.13-.68.52-.68.1.12.32.14.46.21.2-.21.46-.07.71-.19s.36-.49.75-.42a.58.58,0,0,1,.29.15A1.64,1.64,0,0,0,45.2,16.78Zm-.38-6.47c.75.07.83-1.19,0-1C44.13,9.45,44.35,10.24,44.82,10.31Zm-.76-.69c.44-.5-.49-1.14-.92-.55C43,9.65,43.77,9.94,44.06,9.62ZM43,16.71c.06.37,1.29.3,1.12-.19A1.77,1.77,0,0,0,43,16.71Zm-.09-7.55c.32-.7-.83-1.17-1.15-.49-.1.2,0,.27.07.59A.67.67,0,0,0,42.87,9.16Zm0,14.3c.07-.08,0-.1.07-.29a3.54,3.54,0,0,0-1-1.54c-.41.41.19.69.25,1.12.12.13.34.29.31.49C42.65,23.27,42.65,23.46,42.84,23.46Zm-1.58-14c.61-.85-.75-1.6-1.07-.8a1.26,1.26,0,0,0,0,.58A.82.82,0,0,0,41.26,9.5Zm.08,7.58A3,3,0,0,0,41,15.6c-.14-.08-.58.62-.67.77C40.17,16.72,41,17,41.34,17.08Zm-.11,6.57c0-.24-.16-.29-.19-.48-.2-.47-.37-1.34-.88-1.51-.27-.08-.31.09-.53.15s-.27,0-.41.11a1.05,1.05,0,0,0,.38,1.76c.15,0,.1-.25.29-.25C40.12,23.83,40.77,23.85,41.23,23.65ZM39.82,17c.37.17.51-.16.44-.48-.17-.12-.29.07-.48.1C39.75,16.74,39.82,16.88,39.82,17Zm.41-1.28c0-.28.06-.59-.07-.81-.38-.05-.77.22-1,.29a1.67,1.67,0,0,0,.56,1.24C40.33,16.67,40.24,16,40.23,15.72ZM39,10.12c.4.29,1.27-.2,1-.84-.35-.43-1.23-.44-1.3.22A.93.93,0,0,0,39,10.12Zm-.56,1.11c.4-.16.76-.87.3-1.21A1.29,1.29,0,0,0,38,9.94a1,1,0,0,0-.28.27A.72.72,0,0,0,38.43,11.23Zm.12,3.49a.89.89,0,0,0-.41-.68.57.57,0,0,0-.22,0,.61.61,0,0,0-.46.64C37.54,15.28,38.53,15.37,38.55,14.72Zm-.45-1.07c.33-.62-.32-1.47-.86-.93S37.53,14.13,38.1,13.65Zm-.27-1.18c.61,0,.66-1.31-.18-1.21S37,12.5,37.83,12.47ZM35.9,14.33a1.1,1.1,0,0,0-.15-.9c-.11-.13-.26-.1-.38-.18a1.39,1.39,0,0,1-.47-.56,3.82,3.82,0,0,0-.09-.65c-.07-.17-.22-.35-.3-.52s-.16-.43-.38-.48c-.42.29-.08.78-.13,1.15s-.32.56-.43.75-.13.63-.28.87-.22.2-.26.34c-.08,0-.07.08-.19,0s-.1-.07-.11-.16c.35-.11.47-.64.44-1-.1,0-.12-.05-.22,0,0,.2.12.68-.12.81-.22-.17.13-.61-.17-.74a3,3,0,0,1-.49,1.68c0,.2.18.44.37.39a2.19,2.19,0,0,1,.86-.92,1.28,1.28,0,0,1,1.16-.71C35.19,13.52,35.42,14.13,35.9,14.33Zm-1-.15a.7.7,0,0,0,.56.15C35.44,14.08,34.86,13.67,34.88,14.18Zm-.44-3.53c.05-.37-.1-1-.53-.85C34.1,10.07,34.13,10.5,34.44,10.65Zm-.56,6.5c.15-.56.46-1.63.07-2.14a1.44,1.44,0,0,1-.6.8,2.74,2.74,0,0,1,0-1.14c-.05,0-.06,0-.1,0a3.38,3.38,0,0,0-.71,1.08c-.29-.17-.42-.49-.68-.68-.22.34-.07.85-.22,1.14-.32-.05-.44-.29-.75-.34,0,.32.29.58.38.94s0,.64.25.86a9.29,9.29,0,0,1,2.11,0C33.83,17.54,33.81,17.4,33.88,17.15Zm-.56-4.62c.56-.22.56-.71.37-1.39-.1-.37-.12-.69-.3-.86-.27.35-.29.85-.55,1.24-.08-.33-.23-.6-.3-.94-.34.14-.36.61-.59.87a3.77,3.77,0,0,0-.75-.38c0,.34.3.58.41.87s0,.54.28.66A12.29,12.29,0,0,1,33.32,12.53ZM32,13.62c.17,0,.19-.32.16-.44h-.09Zm-.1.37c.14,0,.19-.29.07-.34C32,13.77,31.84,13.89,31.91,14Z" transform="translate(-0.93 -2.01)"/><path class="cls-1" d="M57.34,13.47c.14.23-.22.39-.4.49-.09-.09-.21-.12-.26-.22s0-.22.12-.26.1.12.17.17S57.11,13.42,57.34,13.47Z" transform="translate(-0.93 -2.01)"/><path class="cls-1" d="M57.21,12.16c.1,0,.1.05.17.07a.4.4,0,0,1-.44.34c-.41-.09-.12-.83,0-.26C57.12,12.35,57.09,12.18,57.21,12.16Z" transform="translate(-0.93 -2.01)"/><path class="cls-1" d="M56.87,14.91c.1.44-.68.63-.53.1a.25.25,0,0,1,.22.07C56.61,15,56.72,14.82,56.87,14.91Z" transform="translate(-0.93 -2.01)"/><path class="cls-1" d="M56.65,10.84c.13,0,.13.08.18.12s-.13.13-.11.27c-.28.2-.9-.27-.38-.39,0,0,0,.13.07.15S56.53,10.84,56.65,10.84Z" transform="translate(-0.93 -2.01)"/><path class="cls-1" d="M55.6,10v.22a.43.43,0,0,1-.6-.42c.21-.28.26,0,.31.2A.48.48,0,0,1,55.6,10Z" transform="translate(-0.93 -2.01)"/><path class="cls-1" d="M54.1,9.28c.09,0,.11.05.16.06a.39.39,0,0,1-.46.31c-.09-.1-.19-.34,0-.39s.09.05.11.12S54,9.26,54.1,9.28Z" transform="translate(-0.93 -2.01)"/><path class="cls-1" d="M52.7,9.23c.16.4-.56.42-.5,0a.17.17,0,0,1,.26.08C52.53,9.28,52.56,9.19,52.7,9.23Z" transform="translate(-0.93 -2.01)"/><path class="cls-1" d="M51.34,20.83c.39-.08.68-.36,1-.15-.07.1-.25.22-.15.42C51.88,21.07,51.52,21.17,51.34,20.83Z" transform="translate(-0.93 -2.01)"/><path class="cls-1" d="M51.64,22.15c.27.29.68,1,.31,1.34a2.17,2.17,0,0,1-.76-.47c-.06.1.1.32,0,.44-.42.14-.61-.31-.78-.59-.19,0-.22-.16-.15-.28.3.06.39.34.59.53.15-.22-.1-.46,0-.71.32.1.58.24.63.59.51.17.23-.47,0-.59C51.54,22.32,51.52,22.17,51.64,22.15Z" transform="translate(-0.93 -2.01)"/><path class="cls-1" d="M51.68,18.73c.1.35-.34.59-.72.57a2.5,2.5,0,0,1-.71-.15c-.63-.36.17-1.44.65-.76A1.07,1.07,0,0,1,51.68,18.73Z" transform="translate(-0.93 -2.01)"/><path class="cls-1" d="M51.05,9.72a.22.22,0,0,1,.32-.1c0,.34-.46.39-.63.18C50.73,9.62,51,9.65,51.05,9.72Z" transform="translate(-0.93 -2.01)"/><path class="cls-1" d="M49.9,10.24c.05.31-.43.39-.58.22C49.37,10.23,49.71,10.24,49.9,10.24Z" transform="translate(-0.93 -2.01)"/><path class="cls-1" d="M48.84,20.71c.28-.13.55-.41,1-.29-.05.16-.17.24-.15.46A.9.9,0,0,1,48.84,20.71Z" transform="translate(-0.93 -2.01)"/><path class="cls-1" d="M47.79,18.23a.55.55,0,0,1,.61.73c-.23.22-.86.22-1.39.22a2.23,2.23,0,0,1-.93-.08c-.37-.27.05-.92.46-.9.25,0,.25.24.47.34,0-.25.14-.44.41-.34a.53.53,0,0,0,.24.34C47.77,18.51,47.69,18.29,47.79,18.23Z" transform="translate(-0.93 -2.01)"/><path class="cls-1" d="M48.06,10c0,.1,0,.33-.18.31,0-.17-.07-.22,0-.34A.43.43,0,0,1,48.06,10Z" transform="translate(-0.93 -2.01)"/><path class="cls-1" d="M47.28,20.73c0,.07.21,0,.17.13-.27.28-.74-.15-1,0,.12-.39.49-.34.93-.41C47.47,20.58,47.28,20.59,47.28,20.73Z" transform="translate(-0.93 -2.01)"/><path class="cls-1" d="M46.3,23.21c-.37.27-.68-.19-1.07-.28,0,.19.12.19.1.34-.59.26-1-.51-1-.93.35-.07.32.48.56.63a.86.86,0,0,0,.13-.29c.38-.14.61.14.9.25.09-.2-.27-.47-.07-.71A1.35,1.35,0,0,1,46.3,23.21Z" transform="translate(-0.93 -2.01)"/><path class="cls-1" d="M44.67,9.79c.14.18.34-.11.53.05,0,.28-.65.51-.61,0C44.64,9.84,44.67,9.82,44.67,9.79Z" transform="translate(-0.93 -2.01)"/><path class="cls-1" d="M44.92,20.92c-.22.2-.57-.16-.93-.19v-.19c.31-.05.6-.18.78-.12C44.72,20.61,44.86,20.76,44.92,20.92Z" transform="translate(-0.93 -2.01)"/><path class="cls-1" d="M44.36,18.39a.61.61,0,0,1-.28,1,4.7,4.7,0,0,0-.84,0c-.49-.17-.35-1,.28-.71A.73.73,0,0,1,44.36,18.39Z" transform="translate(-0.93 -2.01)"/><path class="cls-1" d="M43.84,9.23c.08,0,.07.23,0,.3s-.26.09-.44.07a.34.34,0,0,1,0-.37A.62.62,0,0,0,43.84,9.23Z" transform="translate(-0.93 -2.01)"/><path class="cls-1" d="M42.53,20.73c0,.07.19,0,.16.13a1.44,1.44,0,0,1-1.16-.28C41.8,20.46,42.63,20.17,42.53,20.73Z" transform="translate(-0.93 -2.01)"/><path class="cls-1" d="M42.62,8.94c0,.51-.77.42-.61,0,.18-.09.17.08.23.18s.16-.12.22-.18S42.57,8.94,42.62,8.94Z" transform="translate(-0.93 -2.01)"/><path class="cls-1" d="M41.12,9.09c.11.25-.28.42-.49.32a1.09,1.09,0,0,1,0-.34A.64.64,0,0,0,41.12,9.09Z" transform="translate(-0.93 -2.01)"/><path class="cls-1" d="M40.67,23.17c-.34.12-.44-.44-.85-.46-.19.09-.14.39-.27.53-.39,0-.55-.36-.6-.75.26-.18.39.24.41.38.15-.26.36-.7.71-.34.16,0,.14-.09.26-.09C40.41,22.68,40.65,23,40.67,23.17Z" transform="translate(-0.93 -2.01)"/><path class="cls-1" d="M39.41,9.62c.19,0,.26-.24.44-.16,0,.38-.25.51-.64.44,0-.13-.09-.11-.07-.25S39.29,9.56,39.41,9.62Z" transform="translate(-0.93 -2.01)"/><path class="cls-1" d="M38.29,10.65c.12-.1.29-.19.36,0-.09.14-.17.29-.38.31s-.25-.22-.17-.41C38.22,10.53,38.27,10.58,38.29,10.65Z" transform="translate(-0.93 -2.01)"/><path class="cls-1" d="M38.27,14.6c0,.05,0,.17,0,.26s-.56.24-.56-.1C37.92,14.65,38,14.72,38.27,14.6Z" transform="translate(-0.93 -2.01)"/><path class="cls-1" d="M37.83,11.75c.43.21-.22.56-.37.26,0-.12,0-.15,0-.26C37.65,11.8,37.7,11.91,37.83,11.75Z" transform="translate(-0.93 -2.01)"/><path class="cls-1" d="M37.34,13.52c-.27-.31.39-.48.56-.38C37.87,13.64,37.58,13.45,37.34,13.52Z" transform="translate(-0.93 -2.01)"/><polygon class="cls-1" points="54.79 64.58 57.72 64.68 57.34 65.26 54.46 65.14 54.79 64.58"/><polygon class="cls-1" points="54.24 65.5 57.15 65.58 56.83 66 53.78 66.11 54.24 65.5"/></svg>
